<?xml version="1.0" standalone="no"?>
<!DOCTYPE svg PUBLIC "-//W3C//DTD SVG 20010904//EN"
 "http://www.w3.org/TR/2001/REC-SVG-20010904/DTD/svg10.dtd">
<svg version="1.0" xmlns="http://www.w3.org/2000/svg"
 width="224.000000pt" height="224.000000pt" viewBox="0 0 224.000000 224.000000"
 preserveAspectRatio="xMidYMid meet">

<g transform="translate(0.000000,224.000000) scale(0.100000,-0.100000)"
fill="#000000" stroke="none">
<path d="M975 2209 c-389 -53 -724 -314 -871 -677 -61 -152 -77 -238 -77 -412
0 -174 16 -260 77 -412 111 -275 329 -493 604 -604 152 -61 238 -77 412 -77
174 0 260 16 412 77 275 111 493 329 604 604 61 152 77 238 77 412 0 174 -16
260 -77 412 -111 275 -329 493 -604 604 -59 23 -143 50 -186 59 -99 20 -279
27 -371 14z m252 -40 c504 -56 884 -438 943 -948 35 -299 -82 -622 -305 -846
-411 -411 -1072 -413 -1485 -5 -225 222 -345 552 -310 851 63 542 484 932
1033 958 15 0 71 -4 124 -10z"/>
<path d="M920 2116 c-442 -93 -774 -464 -808 -904 -4 -50 -4 -134 0 -185 35
-452 389 -834 841 -907 100 -16 330 -8 417 15 624 166 939 851 660 1432 -125
258 -373 461 -660 538 -87 23 -358 30 -450 11z m324 -100 c-15 -61 -11 -91 13
-94 25 -4 37 15 47 71 5 27 12 37 26 37 17 0 17 -4 6 -53 -15 -65 -22 -76 -52
-87 -43 -17 -103 32 -89 72 2 7 9 32 15 55 8 31 14 41 26 36 11 -4 13 -13 8
-37z m-244 4 c-8 -5 -25 -10 -37 -10 -14 0 -23 -6 -23 -15 0 -11 11 -15 36
-15 42 0 43 -23 1 -28 -43 -5 -36 -37 8 -37 52 0 47 -18 -9 -28 -27 -4 -50 -6
-52 -5 -7 7 -24 141 -19 146 3 3 24 9 48 12 46 7 72 -4 47 -20z m407 -8 c7 -4
19 -35 26 -67 l14 -60 18 48 c17 46 28 56 40 38 6 -11 -43 -141 -54 -141 -19
1 -31 22 -43 75 l-13 60 -19 -48 c-17 -46 -29 -57 -41 -38 -6 10 44 141 54
141 3 0 12 -4 18 -8z m-572 -38 c-22 -52 -20 -59 25 -79 28 -13 37 -22 30 -29
-10 -10 -18 -8 -83 19 -15 6 -16 4 -7 -20 13 -35 13 -35 -9 -35 -26 0 -75 131
-53 144 15 9 32 -7 32 -31 0 -25 15 -12 32 27 9 23 23 40 32 40 15 0 15 -3 1
-36z m745 -44 c0 -14 -60 -119 -72 -126 -27 -17 -23 18 9 74 31 54 63 81 63
52z m46 -23 c2 -7 -2 -35 -10 -62 -9 -27 -14 -50 -13 -52 2 -1 24 12 50 29 34
22 51 28 58 21 16 -16 -105 -96 -132 -88 -13 5 -18 12 -14 22 3 9 13 45 21 80
16 60 29 78 40 50z m-923 -51 c45 -31 54 -42 42 -49 -8 -4 -20 -5 -26 -2 -13
9 -59 -22 -59 -39 0 -7 -6 -19 -14 -25 -11 -10 -17 1 -31 64 -13 59 -14 79 -5
90 14 17 13 17 93 -39z m579 -65 c306 -79 511 -342 511 -656 0 -198 -69 -353
-220 -495 -75 -71 -151 -116 -258 -152 -101 -33 -289 -33 -390 0 -383 128
-576 523 -436 893 117 309 472 492 793 410z m506 -21 c38 -46 25 -66 -18 -25
-33 32 -50 17 -25 -22 11 -16 13 -29 7 -35 -6 -6 -15 1 -26 17 -14 21 -20 24
-32 15 -12 -11 -11 -16 6 -40 30 -42 8 -45 -31 -4 l-34 36 55 49 c30 27 57 49
60 49 3 0 20 -18 38 -40z m-1273 -31 l37 -41 28 21 c44 32 44 9 1 -33 l-38
-37 -46 55 c-26 30 -47 59 -47 65 0 23 29 9 65 -30z m-75 -22 c0 -7 -5 -18
-11 -24 -8 -8 1 -22 33 -51 34 -32 40 -43 31 -53 -10 -9 -21 -4 -53 24 -44 40
-50 43 -67 26 -6 -6 -16 -8 -22 -4 -7 4 2 22 25 51 36 43 64 57 64 31z m1429
-46 c28 -39 28 -79 -1 -90 -13 -5 -29 -6 -35 -4 -7 3 -18 -7 -24 -21 -7 -14
-16 -26 -20 -26 -15 0 -16 26 -2 53 18 36 11 44 -22 27 -18 -10 -28 -11 -36
-3 -8 8 6 23 48 51 32 23 61 41 65 41 4 1 16 -12 27 -28z m-1509 -85 c0 -7 -9
-16 -20 -19 -20 -5 -29 -37 -10 -37 6 0 24 9 39 21 23 17 33 19 49 10 41 -22
36 -77 -9 -102 -29 -15 -56 -4 -39 16 7 8 18 15 25 15 7 0 16 7 19 15 9 26
-23 30 -48 6 -28 -26 -41 -26 -66 -1 -21 21 -18 42 8 73 18 20 52 23 52 3z
m1592 -43 c20 -18 24 -68 7 -78 -15 -10 -22 0 -23 31 -1 15 -7 29 -13 32 -9 2
-13 -10 -13 -42 0 -39 -4 -48 -24 -57 -45 -21 -96 37 -69 80 13 20 29 12 25
-13 -3 -22 16 -48 29 -40 5 3 9 22 9 43 0 58 34 79 72 44z m-1678 -102 c-11
-26 -10 -54 2 -58 7 -2 17 10 22 27 6 16 16 30 23 30 10 0 10 -15 -2 -59 -2
-8 4 -17 14 -19 10 -2 17 2 17 10 0 20 27 54 35 46 10 -9 -17 -98 -29 -98 -8
0 -127 41 -135 46 -1 2 4 25 14 53 12 37 20 48 31 44 10 -3 13 -12 8 -22z
m1734 -28 c-4 -24 -137 -58 -145 -37 -7 19 -8 19 62 37 79 20 87 20 83 0z m18
-70 c11 -41 10 -92 -1 -93 -5 0 -11 8 -13 18 -3 18 -7 19 -62 7 -33 -7 -62
-10 -65 -7 -16 16 2 29 55 40 57 12 60 14 54 37 -5 19 -2 25 10 25 9 0 19 -12
22 -27z m-1676 -76 c0 -17 -11 -28 -41 -43 l-42 -20 37 -22 c22 -13 36 -29 36
-42 0 -18 -6 -20 -70 -20 -56 0 -70 3 -70 15 0 11 12 15 48 15 l47 1 -37 20
c-21 11 -38 24 -38 29 0 6 15 19 33 30 l32 20 -42 0 c-29 0 -43 4 -43 13 0 23
11 27 82 27 64 0 68 -1 68 -23z m1700 -50 c0 -7 -14 -21 -31 -31 l-31 -19 31
-19 c17 -11 31 -26 31 -34 0 -19 -4 -18 -50 11 -22 14 -53 25 -70 25 -20 0
-30 5 -30 15 0 10 10 15 28 15 15 0 45 11 67 25 46 28 55 30 55 12z m-1569
-517 c51 -64 63 -90 50 -103 -7 -7 -11 -7 -11 -1 0 6 -6 19 -14 29 -13 18 -14
18 -24 -2 -9 -16 -8 -28 4 -52 21 -42 10 -55 -41 -48 -24 4 -46 2 -52 -4 -8
-8 -16 -1 -28 24 -9 19 -32 53 -51 75 -19 22 -34 47 -34 55 0 17 38 67 51 67
14 0 11 -22 -7 -41 -21 -23 -11 -57 11 -39 8 7 15 19 15 26 0 8 6 14 13 14 6
0 23 3 36 7 22 5 23 4 18 -19 -8 -29 14 -54 38 -44 23 8 18 30 -14 62 -22 22
-27 32 -19 42 6 7 14 9 18 5 3 -4 22 -28 41 -53z m1361 30 c10 11 23 20 28 20
18 0 21 -20 6 -36 -9 -8 -16 -12 -16 -7 0 12 -36 -49 -44 -75 -5 -13 -3 -22 3
-22 6 0 11 9 11 19 0 23 16 37 23 19 3 -10 9 -8 24 5 22 19 39 11 21 -11 -10
-11 -9 -16 4 -23 26 -15 48 -39 48 -54 0 -7 -11 -20 -25 -29 -28 -18 -31 -15
-13 14 11 17 9 23 -10 42 l-22 22 -6 -32 c-6 -30 -29 -60 -39 -50 -3 3 2 21
10 41 18 43 18 47 5 47 -5 0 -10 -9 -10 -20 0 -11 -4 -20 -10 -20 -5 0 -10 5
-10 10 0 6 -4 10 -9 10 -12 0 -24 -40 -22 -72 1 -16 -2 -28 -7 -28 -15 0 -21
24 -16 58 4 25 1 31 -21 36 -14 4 -25 11 -25 16 0 14 23 13 38 -2 6 -6 14 -9
17 -6 3 3 -15 16 -40 29 -52 28 -59 44 -14 34 22 -5 29 -4 25 4 -4 6 -12 11
-17 11 -11 0 -39 25 -39 34 0 3 6 6 13 6 8 0 22 9 32 20 17 19 18 19 53 -5 36
-24 36 -24 54 -5z m-1049 -280 c4 -15 0 -20 -14 -20 -12 0 -19 7 -19 20 0 11
6 20 14 20 7 0 16 -9 19 -20z m54 -15 c-5 -27 31 -75 66 -88 23 -9 22 -24 -4
-37 -15 -9 -18 -15 -9 -25 12 -15 -3 -31 -20 -20 -15 9 -12 26 8 48 9 11 12
18 5 16 -6 -2 -26 -26 -45 -54 -18 -27 -42 -51 -53 -53 -19 -4 -19 -4 1 19 23
26 64 101 64 119 0 14 -47 13 -56 -1 -4 -8 0 -9 15 -4 26 8 29 -19 4 -47 -17
-19 -72 -25 -89 -8 -6 6 -16 -2 -28 -25 -17 -31 -46 -48 -46 -27 0 18 73 93
86 88 7 -3 17 1 23 8 8 10 4 13 -19 13 -16 0 -31 -6 -34 -14 -9 -23 -21 -14
-23 17 -2 21 2 30 12 30 8 0 15 -5 15 -11 0 -8 4 -8 13 -1 6 6 25 12 42 14 21
2 31 9 33 23 6 36 11 45 28 45 12 0 15 -7 11 -25z m543 -40 l0 -34 42 15 c46
16 68 13 68 -11 0 -9 -9 -15 -24 -15 -53 0 -85 -20 -96 -60 -13 -49 -55 -100
-82 -100 -18 0 -16 5 16 40 34 38 47 70 28 70 -5 0 -17 -9 -27 -20 -22 -24
-25 -24 -50 -6 -18 13 -16 16 38 42 60 29 65 40 47 89 -13 34 -5 48 21 35 13
-7 19 -21 19 -45z m-417 -25 c-1 -21 -39 -157 -58 -209 -4 -11 -11 -9 -30 9
-14 13 -25 28 -25 34 0 6 5 5 12 -2 16 -16 28 -15 28 3 0 9 11 48 25 87 14 39
25 73 25 75 0 2 -11 1 -25 -3 -19 -5 -25 -2 -25 9 0 9 10 18 23 20 40 8 52 3
50 -23z m522 -74 c34 -15 46 -38 25 -51 -9 -6 -120 50 -120 61 0 10 63 3 95
-10z"/>
<path d="M640 1842 c0 -24 8 -32 26 -25 19 7 18 16 -6 31 -17 10 -20 10 -20
-6z"/>
<path d="M1001 1779 c-240 -43 -459 -250 -515 -489 -30 -125 -17 -292 31 -405
51 -120 166 -252 276 -315 146 -85 351 -109 507 -61 112 34 195 85 280 170
123 123 178 249 187 423 11 201 -45 346 -187 489 -90 90 -173 142 -280 173
-67 20 -226 28 -299 15z m359 -204 c92 -19 210 -56 210 -66 0 -4 -9 -28 -20
-53 l-19 -45 -36 15 c-98 41 -207 58 -365 58 -160 -1 -234 -12 -361 -54 -34
-12 -62 -20 -63 -18 -18 29 -37 91 -30 97 16 16 166 59 244 70 41 6 86 13 100
15 48 9 267 -4 340 -19z m-560 -475 c0 -178 3 -227 15 -250 18 -35 43 -50 84
-50 16 0 33 -5 37 -11 3 -6 26 -23 50 -39 48 -30 46 -38 -15 -59 -54 -18 -103
-13 -162 17 -66 33 -105 86 -119 161 -5 29 -10 143 -10 252 l0 199 60 0 60 0
0 -220z m212 24 l3 -196 33 -29 c38 -34 93 -39 131 -13 43 31 51 70 51 259 l0
175 55 0 55 0 0 -197 c0 -171 -3 -204 -19 -239 -33 -72 -126 -134 -203 -134
-43 0 -111 29 -147 63 -64 61 -71 89 -71 310 l0 197 54 0 55 0 3 -196z m536
-53 l-3 -249 -30 -44 c-20 -28 -49 -53 -85 -71 -47 -25 -63 -28 -113 -24 -32
3 -69 13 -83 22 l-26 16 45 29 c25 15 48 33 51 39 4 6 21 11 37 11 41 0 66 15
84 50 12 23 15 72 15 250 l0 220 55 0 56 0 -3 -249z"/>
<path d="M1824 1645 c-9 -23 15 -48 32 -34 10 8 11 16 3 30 -12 23 -28 25 -35
4z"/>
<path d="M350 630 c-24 -15 0 -30 30 -18 20 7 22 11 10 18 -19 12 -21 12 -40
0z"/>
<path d="M395 581 c-18 -7 -18 -8 -1 -18 22 -12 58 -5 53 11 -5 14 -26 17 -52
7z"/>
<path d="M1736 715 c4 -8 7 -15 9 -15 2 0 5 7 9 15 3 9 0 15 -9 15 -9 0 -12
-6 -9 -15z"/>
<path d="M1776 701 c-3 -4 3 -16 14 -26 18 -16 20 -16 20 -2 0 10 -6 16 -12
15 -7 -2 -12 3 -10 10 2 14 -4 16 -12 3z"/>
<path d="M1758 638 c5 -5 16 -8 23 -6 8 3 3 7 -10 11 -17 4 -21 3 -13 -5z"/>
<path d="M765 319 c-11 -17 -2 -18 25 -4 24 14 24 14 3 15 -12 0 -25 -5 -28
-11z"/>
</g>
</svg>
