<?xml version="1.0" encoding="UTF-8"?>
<svg version="1.1" xmlns="http://www.w3.org/2000/svg" width="473" height="474">
<path d="M0 0 C21.12 0 42.24 0 64 0 C64.0093457 5.65729248 64.01869141 11.31458496 64.02832031 17.14331055 C64.06210605 35.84696042 64.11746395 54.55050066 64.18390274 73.2540617 C64.22365416 84.59263524 64.25606646 95.93113976 64.27099609 107.26977539 C64.2840328 117.15646987 64.311049 127.04301224 64.35461307 136.92962104 C64.37718241 142.16095207 64.3929134 147.39209581 64.39188385 152.62347984 C64.39113456 157.55573578 64.40919282 162.48757841 64.44116783 167.41972733 C64.44962901 169.22192434 64.45144271 171.02416791 64.44580269 172.82637596 C64.39932679 189.97194849 67.54628015 205.26324106 80 218 C93.23361564 228.90978295 107.22908384 232.2917358 124 231 C137.74266953 228.5833865 149.34933153 220.84183998 157.68359375 209.76171875 C165.98023077 197.12020948 166.59185299 183.72580152 166.54589844 169.15283203 C166.55465181 167.29856507 166.56514368 165.44430564 166.57722473 163.59005737 C166.60488938 158.59924896 166.60849376 153.6086894 166.60750484 148.61781549 C166.61065086 143.38609513 166.63630399 138.15448409 166.65948486 132.92282104 C166.69991963 123.0351506 166.72035604 113.14754589 166.73345876 103.25980556 C166.74937137 91.99482393 166.78780483 80.7299535 166.82805204 69.46503663 C166.91027956 46.31003978 166.96150659 23.15511371 167 0 C187.79 0 208.58 0 230 0 C230.09049903 25.24435734 230.1640974 50.48858213 230.20724869 75.73306084 C230.22782235 87.45605171 230.25584303 99.17893419 230.30175781 110.90185547 C230.34178526 121.12655373 230.36747052 131.35117344 230.37635398 141.57594788 C230.3815419 146.98355029 230.39362573 152.39092809 230.42292023 157.7984581 C230.45034138 162.90218087 230.45839179 168.00558937 230.45243073 173.10937881 C230.45351915 174.9691769 230.46131231 176.82898697 230.4768219 178.6887207 C230.70505895 207.50235395 221.76957497 235.53147718 202 257 C201.52046875 257.52190918 201.0409375 258.04381836 200.546875 258.58154297 C178.31627062 282.50330128 150.66316048 293.68378501 118.51953125 296.28125 C90.16831025 297.1614949 62.69507459 286.95346027 41 269 C40.15179688 268.31550781 39.30359375 267.63101562 38.4296875 266.92578125 C15.33202536 247.33983263 2.96352166 218.00414856 0.17898417 188.34210134 C-0.36376841 181.23990024 -0.25832068 174.11358433 -0.22705078 166.99584961 C-0.22648497 165.16085313 -0.22680654 163.3258562 -0.22793579 161.49085999 C-0.22850366 156.56636303 -0.21684219 151.64196587 -0.20278788 146.71749187 C-0.19018503 141.5499122 -0.18910255 136.3823296 -0.18673706 131.21473694 C-0.18055012 121.45464072 -0.16417748 111.69458994 -0.14403808 101.93451363 C-0.12159176 90.81220922 -0.1106638 79.68990252 -0.10064721 68.56758106 C-0.07980841 45.7116898 -0.0431675 22.85586074 0 0 Z " fill="#004990" transform="translate(121,142)"/>
<path d="M0 0 C1.10535473 -0.00424107 1.10535473 -0.00424107 2.23303986 -0.00856781 C6.150806 -0.02343552 10.06853666 -0.03273701 13.98632812 -0.03710938 C17.13683981 -0.04144384 20.28706986 -0.0551557 23.4375 -0.078125 C52.06010182 -0.28225775 80.4344732 1.22016304 108.765625 5.515625 C109.82003784 5.67194397 109.82003784 5.67194397 110.89575195 5.8314209 C159.92044488 13.10949789 206.84389298 26.33415963 253.015625 44.203125 C248.67238125 55.97147297 244.13578319 67.6575182 239.46459961 79.29956055 C238.69694595 81.21861225 237.93404006 83.13956897 237.17553711 85.06225586 C236.06643385 87.8726928 234.9431357 90.67705989 233.81640625 93.48046875 C233.31008415 94.77548561 233.31008415 94.77548561 232.79353333 96.09666443 C232.47277328 96.88581741 232.15201324 97.6749704 231.8215332 98.48803711 C231.54428909 99.18368271 231.26704498 99.87932831 230.98139954 100.59605408 C230.015625 102.203125 230.015625 102.203125 227.015625 103.203125 C224.63152517 102.49237843 222.38937525 101.71022933 220.078125 100.80859375 C218.62942549 100.26397011 217.1805227 99.71988696 215.73144531 99.17626953 C214.96433228 98.88512268 214.19721924 98.59397583 213.40686035 98.29400635 C165.37967798 80.14988653 115.17980441 69.40680598 64.015625 65.203125 C62.87303223 65.10741211 61.73043945 65.01169922 60.55322266 64.91308594 C47.47300326 63.95335386 34.37544702 63.96054518 21.265625 63.953125 C20.02807465 63.95211792 18.79052429 63.95111084 17.51547241 63.95007324 C-3.13781012 63.96139896 -23.47701568 64.78030371 -43.984375 67.203125 C-45.24556152 67.34766113 -46.50674805 67.49219727 -47.80615234 67.64111328 C-94.64748769 73.14504637 -140.64097647 84.95401227 -184.41333008 102.4440918 C-185.35764137 102.82060631 -185.35764137 102.82060631 -186.32102966 103.20472717 C-188.022282 103.88546022 -189.72095261 104.57263532 -191.41943359 105.26025391 C-193.984375 106.203125 -193.984375 106.203125 -195.984375 106.203125 C-198.59912585 100.014334 -201.21341228 93.82534697 -203.82739258 87.63623047 C-204.71465819 85.53560053 -205.60202584 83.43501368 -206.48950195 81.33447266 C-208.97331112 75.45551861 -211.45429118 69.57538503 -213.93255615 63.6940918 C-214.85543266 61.50849231 -215.78309459 59.3250314 -216.71337891 57.14257812 C-217.17019043 56.06427734 -217.62700195 54.98597656 -218.09765625 53.875 C-218.47317627 52.99424805 -218.84869629 52.11349609 -219.2355957 51.20605469 C-219.984375 49.203125 -219.984375 49.203125 -219.984375 47.203125 C-188.94447537 34.53612075 -157.54078309 24.21226236 -124.984375 16.203125 C-123.8284082 15.91598633 -122.67244141 15.62884766 -121.48144531 15.33300781 C-82.02283926 5.65800503 -40.62941947 0.1085016 0 0 Z " fill="#F18D00" transform="translate(219.984375,0.796875)"/>
<path d="M0 0 C20.79 0 41.58 0 63 0 C63.01458252 6.72802002 63.02916504 13.45604004 63.04418945 20.38793945 C63.09450816 42.60800142 63.16094839 64.82799351 63.23571491 87.04798603 C63.24468602 89.73161614 63.25359368 92.41524646 63.26245117 95.09887695 C63.26465486 95.76588925 63.26685854 96.43290154 63.269129 97.12012633 C63.3044541 107.90531568 63.32934521 118.69050497 63.35034702 129.47573064 C63.3721473 140.55108198 63.40545837 151.62635627 63.44870156 162.7016446 C63.47261426 168.91880316 63.49135591 175.13587918 63.49761391 181.35308266 C63.50367348 187.20944896 63.5237053 193.06560411 63.55427551 198.92189217 C63.56304168 201.06679568 63.56678128 203.2117268 63.56500816 205.35664749 C63.55534894 222.43874259 64.88200285 239.21056019 77.25390625 252.41796875 C86.50411589 260.79903118 98.33970044 267.3726154 111 268 C112.9385491 267.71051532 114.87703469 267.42008588 116.81225586 267.10913086 C125.18086367 265.90569158 125.18086367 265.90569158 128.75976562 268.05859375 C132.35060688 271.10511242 135.32425832 274.72944663 138.40234375 278.27832031 C150.58061235 291.40196796 170.22978064 299.80205273 187 305 C185.50059065 309.23081746 182.4651777 311.04439699 178.8125 313.3125 C178.19028564 313.70276367 177.56807129 314.09302734 176.92700195 314.49511719 C150.23031633 330.8693517 118.74314971 336.28776737 88.06835938 329.49609375 C58.56830767 322.42053838 32.56981991 303.85657936 16.51953125 278.109375 C6.19354175 260.82419636 -0.18733868 241.61898792 -0.12025452 221.38856506 C-0.12110894 220.43928349 -0.12196337 219.49000193 -0.12284368 218.51195425 C-0.12448656 215.34136482 -0.11899665 212.17082867 -0.11352539 209.00024414 C-0.11324324 206.72337851 -0.11340181 204.44651279 -0.1139679 202.16964722 C-0.11425476 195.99463086 -0.10837582 189.81963393 -0.10139394 183.64462209 C-0.09514207 177.18906201 -0.09455515 170.73350148 -0.09336853 164.27793884 C-0.09061372 153.44464746 -0.08436778 142.61136404 -0.07543945 131.77807617 C-0.06625454 120.62182653 -0.05917898 109.46557883 -0.05493164 98.30932617 C-0.05466892 97.62116926 -0.05440619 96.93301234 -0.05413551 96.22400219 C-0.05283043 92.77157618 -0.05156673 89.31915016 -0.05032361 85.86672413 C-0.03996399 57.24447698 -0.02153269 28.62224109 0 0 Z " fill="#004990" transform="translate(13,142)"/>
<path d="M0 0 C20.79 0 41.58 0 63 0 C63.06626379 28.88387667 63.12160703 57.76769538 63.15319599 86.6516293 C63.15694765 90.06959219 63.16083066 93.48755492 63.16479492 96.90551758 C63.16558185 97.58590908 63.16636878 98.26630059 63.16717956 98.96731002 C63.180197 109.95217889 63.20383041 120.93700017 63.23145839 131.9218409 C63.25961496 143.21187245 63.27597359 154.50188043 63.28226548 165.79194885 C63.28616279 172.12558754 63.29526739 178.45911863 63.31719017 184.7927227 C63.33769501 190.76560112 63.34380571 196.73832859 63.33932304 202.71123886 C63.34014202 204.89234681 63.34602358 207.07346029 63.35761642 209.25453758 C63.53261477 243.9059374 53.83248388 274.21985503 29.3125 299.25 C13.58161294 314.77067476 -6.30710918 325.55835606 -28 330 C-29.52367187 330.33451172 -29.52367187 330.33451172 -31.078125 330.67578125 C-61.40381914 336.39100822 -92.75191877 328.85931896 -118.1875 311.87109375 C-122.3124829 308.78380186 -122.3124829 308.78380186 -124 307 C-124 306.34 -124 305.68 -124 305 C-123.04222656 304.67128906 -122.08445312 304.34257812 -121.09765625 304.00390625 C-100.70986156 296.80501633 -80.73404225 286.10455584 -66.6796875 269.2109375 C-64 267 -64 267 -60.50390625 266.8359375 C-59.20324219 267.01382812 -57.90257812 267.19171875 -56.5625 267.375 C-42.10659438 268.86088866 -29.77284911 264.74451662 -18.24609375 255.8828125 C-7.98552883 246.57781164 -1.89763524 233.38743565 -0.81282878 219.62553859 C-0.73515452 217.20484353 -0.71591312 214.79139895 -0.7215271 212.36947632 C-0.7157347 211.45438345 -0.7099423 210.53929057 -0.70397437 209.59646761 C-0.68709916 206.55955497 -0.68410869 203.52279543 -0.68115234 200.48583984 C-0.67184555 198.29719679 -0.66167576 196.10855725 -0.65071106 193.91992188 C-0.62348181 187.99922273 -0.60828262 182.07854729 -0.59528303 176.1578021 C-0.57962151 169.96248383 -0.55284092 163.76721373 -0.5272522 157.57192993 C-0.48051789 145.84959595 -0.44374789 134.12725285 -0.41057932 122.40487349 C-0.37247782 109.05540885 -0.32291992 95.70599561 -0.27259517 82.35657191 C-0.16935484 54.90441264 -0.08153932 27.4522329 0 0 Z " fill="#004990" transform="translate(397,142)"/>
</svg>
