<?xml version="1.0" standalone="no"?>
<!DOCTYPE svg PUBLIC "-//W3C//DTD SVG 20010904//EN"
 "http://www.w3.org/TR/2001/REC-SVG-20010904/DTD/svg10.dtd">
<svg version="1.0" xmlns="http://www.w3.org/2000/svg"
 width="2000.000000pt" height="2040.000000pt" viewBox="0 0 2000.000000 2040.000000"
 preserveAspectRatio="xMidYMid meet">

<g transform="translate(0.000000,2040.000000) scale(0.100000,-0.100000)"
fill="#000000" stroke="none">
<path d="M9888 20393 c-40 -2 -68 -8 -68 -15 0 -6 9 -209 21 -452 11 -242 18
-472 15 -511 -14 -178 -97 -274 -252 -291 -123 -13 -227 31 -278 118 -50 85
-57 142 -80 643 l-21 470 -119 -3 c-66 -1 -121 -3 -122 -5 -4 -3 33 -805 41
-905 29 -358 231 -547 565 -529 168 9 275 51 365 141 96 95 144 237 145 421 0
113 -28 792 -36 873 l-5 52 -52 -2 c-29 -1 -82 -3 -119 -5z"/>
<path d="M11002 20330 c-129 -28 -239 -115 -284 -228 -18 -47 -22 -76 -23
-167 0 -100 2 -115 28 -167 56 -113 151 -185 341 -258 227 -86 287 -136 294
-244 5 -84 -25 -141 -92 -175 -41 -21 -62 -25 -131 -24 -168 2 -281 60 -372
192 -3 5 -181 -86 -197 -100 -27 -24 125 -177 224 -225 154 -74 356 -102 498
-69 206 49 313 187 315 405 1 121 -22 187 -92 256 -68 68 -134 105 -298 167
-164 62 -228 104 -261 167 -45 86 -14 192 70 240 37 21 55 25 128 24 136 -2
242 -53 302 -145 l31 -49 56 32 c31 17 75 42 98 55 l43 25 -21 41 c-52 100
-185 193 -334 232 -71 19 -263 28 -323 15z"/>
<path d="M8156 20231 l-120 -27 -133 -284 c-252 -542 -235 -508 -244 -480 -4
14 -38 165 -75 335 -37 171 -68 311 -69 313 -3 3 -227 -47 -232 -52 -4 -4 297
-1398 303 -1405 7 -8 234 43 234 53 0 6 -18 91 -39 189 l-40 179 75 156 75
156 277 -276 277 -277 143 31 144 31 -361 361 c-199 199 -361 364 -361 369 0
4 70 152 155 328 85 177 155 323 155 325 0 8 -49 1 -164 -25z"/>
<path d="M12344 20116 c-3 -7 -92 -319 -198 -692 -131 -459 -190 -681 -182
-685 16 -10 192 -59 209 -59 10 0 39 88 100 301 48 166 88 304 91 306 6 6 508
-136 519 -147 5 -4 -30 -144 -77 -311 -47 -167 -82 -306 -77 -309 15 -9 221
-63 225 -59 1 2 89 309 195 682 105 373 194 684 197 691 3 8 -2 17 -13 20 -65
19 -203 56 -211 56 -4 0 -44 -126 -88 -280 -48 -171 -84 -280 -91 -280 -11 0
-514 140 -521 145 -1 1 34 129 78 285 44 155 79 284 78 285 -4 4 -214 65 -222
65 -4 0 -9 -6 -12 -14z"/>
<path d="M6165 19657 c-55 -22 -101 -41 -103 -42 -6 -5 62 -1511 69 -1519 4
-5 58 12 121 37 108 43 113 47 112 74 0 15 -4 87 -8 158 l-7 130 235 93 c129
50 239 92 244 92 6 0 53 -52 106 -115 53 -63 100 -115 104 -115 14 0 232 85
232 91 0 3 -62 77 -138 165 -76 87 -299 346 -496 574 -197 228 -361 416 -365
417 -3 0 -51 -17 -106 -40z m334 -571 c105 -126 190 -230 189 -231 -8 -6 -339
-135 -348 -135 -5 0 -10 17 -10 38 0 20 -7 136 -15 257 -15 224 -18 312 -11
304 2 -2 90 -107 195 -233z"/>
<path d="M13975 19553 c-9 -21 -135 -315 -280 -653 -145 -338 -265 -621 -267
-628 -3 -12 207 -110 216 -101 7 6 566 1311 566 1319 0 6 -115 60 -207 97 -7
3 -19 -12 -28 -34z"/>
<path d="M14724 19003 c-519 -874 -614 -1036 -614 -1042 0 -5 164 -108 190
-119 4 -1 45 62 92 140 47 79 159 267 249 418 l164 275 5 -570 5 -569 90 -53
c70 -40 92 -50 101 -40 18 19 724 1214 724 1225 0 5 -43 35 -96 67 -76 45 -98
54 -105 44 -5 -8 -118 -198 -251 -422 l-243 -408 -6 403 c-4 222 -7 480 -8
575 l-1 172 -86 50 c-47 28 -88 51 -90 51 -2 0 -56 -89 -120 -197z"/>
<path d="M4935 19043 c-182 -24 -377 -157 -451 -309 -32 -65 -37 -85 -42 -169
-6 -119 13 -204 74 -333 59 -127 170 -312 238 -399 216 -276 500 -312 781
-100 124 94 185 213 185 364 0 149 -49 285 -176 490 -14 22 -16 20 -226 -104
-117 -69 -218 -131 -225 -137 -9 -8 -1 -30 36 -94 27 -46 51 -86 54 -88 3 -3
60 27 127 66 67 40 124 70 127 67 20 -21 53 -146 53 -204 0 -111 -55 -190
-169 -245 -113 -55 -226 -27 -330 81 -60 62 -209 299 -265 423 -85 184 -68
314 53 402 125 92 261 89 369 -8 21 -20 43 -36 46 -36 13 0 196 112 196 120 0
4 -30 36 -67 70 -77 72 -179 126 -269 140 -60 10 -65 10 -119 3z"/>
<path d="M2805 16970 c-4 -6 -1 -17 5 -25 19 -23 6 -40 -57 -75 -126 -71 -183
-155 -183 -270 0 -81 29 -148 91 -207 94 -90 178 -96 389 -28 199 64 267 61
354 -15 99 -87 101 -193 4 -289 -84 -85 -177 -91 -311 -21 -43 22 -83 40 -88
40 -24 0 -3 -31 51 -76 33 -27 83 -75 110 -106 50 -56 80 -73 80 -44 0 8 -4
18 -10 21 -28 17 -7 43 62 76 97 46 178 126 207 205 46 121 23 254 -57 337
-62 65 -104 81 -202 81 -74 -1 -102 -7 -217 -47 -159 -54 -198 -62 -253 -47
-55 15 -124 79 -146 136 -15 38 -15 51 -4 87 37 123 184 171 319 103 58 -30
61 -31 61 -13 0 8 -36 44 -80 81 -44 37 -80 71 -80 76 0 15 -38 32 -45 20z"/>
<path d="M17140 16969 c0 -6 16 -29 35 -50 19 -22 35 -45 35 -52 0 -7 -12 -27
-27 -44 -35 -38 -649 -614 -722 -676 -64 -55 -101 -66 -138 -42 -25 17 -26 18
-8 31 10 8 27 14 37 14 28 0 58 37 58 71 0 39 -48 89 -85 89 -39 0 -95 -59
-95 -99 0 -92 101 -172 220 -174 117 -2 127 5 554 408 169 160 314 292 323
293 8 2 32 -13 53 -33 23 -22 40 -33 44 -26 7 10 -259 301 -275 301 -5 0 -9
-5 -9 -11z"/>
<path d="M2227 16298 c-13 -18 -64 -87 -112 -153 -49 -66 -142 -190 -208 -275
-66 -85 -124 -160 -129 -166 -9 -13 182 -184 206 -184 26 0 18 24 -20 61 -48
46 -74 99 -74 151 0 34 10 57 51 120 l51 77 367 -276 c201 -151 376 -285 389
-296 28 -26 28 -39 -4 -87 -36 -54 -25 -72 14 -24 89 110 220 294 209 294 -7
0 -29 -16 -47 -35 -27 -28 -40 -35 -59 -30 -17 4 -708 515 -765 566 -15 14 62
115 112 149 60 40 110 40 188 0 61 -31 89 -37 98 -21 5 7 -224 161 -239 161
-2 0 -15 -15 -28 -32z"/>
<path d="M17585 16291 c-87 -23 -180 -103 -206 -177 -18 -50 -15 -177 5 -272
25 -116 21 -199 -12 -262 -31 -60 -101 -115 -159 -126 -79 -15 -163 38 -209
132 -45 93 -24 187 67 296 36 43 43 68 20 68 -4 0 -32 -21 -61 -46 -30 -26
-87 -69 -128 -96 -40 -27 -71 -55 -69 -61 3 -7 11 -10 18 -8 56 16 56 16 79
-56 35 -106 64 -156 123 -209 68 -63 138 -89 232 -88 120 1 226 72 260 175 22
65 21 186 -1 292 -10 45 -18 116 -18 158 -1 68 2 80 29 118 34 50 116 101 162
101 68 0 123 -37 154 -105 34 -74 19 -167 -41 -248 -47 -64 -21 -68 47 -8 32
29 77 64 100 79 47 29 57 55 21 52 -40 -4 -45 -1 -56 28 -43 115 -58 144 -95
182 -23 24 -61 52 -85 62 -49 22 -132 31 -177 19z"/>
<path d="M18230 15651 c0 -8 9 -29 21 -47 11 -19 19 -44 17 -56 -2 -16 -97
-82 -398 -274 -217 -139 -405 -253 -417 -253 -16 -1 -31 12 -49 39 -26 39 -44
51 -44 29 0 -14 198 -327 212 -335 22 -14 19 9 -8 60 -29 55 -29 56 -9 75 23
21 383 251 393 251 4 -1 18 -24 32 -52 36 -75 119 -161 182 -189 104 -46 222
-24 301 55 53 52 69 98 65 176 -5 83 -30 137 -154 332 -98 154 -144 215 -144
189z m188 -311 c59 -87 51 -161 -24 -237 -54 -53 -154 -103 -208 -103 -52 0
-117 32 -160 80 -68 76 -72 67 82 166 241 155 243 156 266 140 12 -7 31 -28
44 -46z"/>
<path d="M1550 15376 c0 -8 5 -18 10 -21 23 -14 6 -43 -55 -98 -88 -79 -119
-139 -119 -232 0 -89 26 -147 95 -209 119 -107 233 -100 446 29 98 60 185 89
242 81 85 -12 169 -79 192 -154 14 -49 0 -103 -44 -168 -63 -94 -179 -122
-312 -75 -69 24 -85 26 -85 8 0 -7 27 -27 60 -45 32 -18 93 -57 135 -87 42
-30 80 -55 86 -55 16 0 10 23 -13 48 l-23 24 35 27 c149 112 204 203 204 336
0 101 -27 166 -93 228 -123 115 -242 104 -496 -48 -147 -88 -212 -93 -311 -24
-132 90 -79 276 89 311 54 11 86 9 176 -14 7 -1 16 3 18 10 3 7 -11 19 -33 28
-21 9 -73 38 -115 65 -83 54 -89 56 -89 35z"/>
<path d="M18595 14687 c-58 -19 -86 -35 -123 -71 -68 -64 -81 -108 -91 -313
-7 -147 -10 -166 -35 -217 -29 -59 -79 -102 -145 -124 -129 -44 -251 61 -251
216 0 74 42 148 117 207 94 74 74 97 -33 36 -38 -21 -102 -51 -141 -67 -44
-16 -73 -34 -73 -42 0 -10 9 -13 30 -10 17 3 34 0 38 -6 5 -6 14 -49 20 -95
21 -154 88 -254 206 -308 85 -39 188 -39 261 -1 123 64 165 169 165 411 0 129
12 183 51 230 59 72 177 99 245 58 83 -50 104 -169 49 -270 -16 -29 -44 -65
-62 -78 -31 -24 -44 -53 -24 -53 5 0 38 17 72 38 35 21 84 46 109 57 25 10 49
23 55 27 13 12 -12 27 -35 21 -23 -6 -35 17 -44 82 -17 124 -68 205 -157 251
-60 30 -149 39 -204 21z"/>
<path d="M1022 14405 c-45 -91 -82 -170 -82 -175 0 -21 16 -9 40 30 13 22 30
42 36 44 17 7 829 -388 865 -421 15 -13 16 -18 1 -63 -9 -27 -13 -53 -9 -56 4
-4 9 -5 10 -3 9 11 167 343 167 350 0 22 -20 5 -44 -36 -15 -25 -34 -45 -44
-45 -23 0 -832 397 -856 420 -18 17 -18 20 -2 59 9 23 16 46 16 51 0 31 -24
-7 -98 -155z"/>
<path d="M764 13836 c-26 -72 -89 -236 -141 -364 -51 -127 -93 -238 -93 -245
0 -13 215 -117 243 -117 29 0 19 18 -25 46 -98 61 -136 120 -124 195 8 52 45
149 56 149 23 0 877 -335 893 -350 18 -16 18 -20 3 -70 -16 -53 -14 -72 4 -54
5 5 28 60 49 121 22 62 52 140 66 173 30 71 30 117 1 60 -26 -50 -46 -70 -70
-70 -12 0 -218 75 -459 167 -499 192 -454 160 -396 280 53 110 99 130 257 108
43 -5 62 -5 62 3 0 16 -8 19 -149 61 l-130 37 -47 -130z"/>
<path d="M19350 13493 c0 -10 5 -35 11 -56 8 -29 7 -42 -2 -53 -12 -15 -879
-304 -911 -304 -13 0 -25 15 -40 50 -19 47 -38 65 -38 38 0 -26 122 -378 131
-378 12 0 11 8 -3 70 -10 42 -9 53 3 64 8 8 114 47 236 87 176 58 225 71 235
61 7 -7 12 -42 13 -90 0 -111 -11 -124 -189 -211 -156 -76 -194 -110 -218
-196 -13 -48 2 -137 30 -175 37 -49 119 -31 92 20 -7 13 -18 20 -28 17 -45
-12 -47 -12 -50 15 -5 47 16 67 131 124 220 110 266 166 267 324 l1 85 31 -58
c84 -155 225 -220 345 -159 133 68 157 206 75 427 -23 61 -55 156 -72 213 -28
92 -50 130 -50 85z m84 -297 c25 -39 38 -112 26 -155 -19 -72 -118 -137 -224
-148 -69 -7 -117 10 -157 55 -30 33 -86 139 -78 146 12 10 369 125 390 125 18
1 32 -7 43 -23z"/>
<path d="M395 12805 c-34 -134 -39 -174 -16 -149 5 5 16 33 26 62 11 35 22 52
33 52 31 0 701 -175 694 -181 -5 -5 -607 -220 -829 -296 -40 -14 -42 -17 -54
-71 -6 -31 -22 -92 -35 -135 -22 -75 -24 -104 -4 -92 5 3 16 28 25 55 20 61
45 80 105 80 60 0 847 -203 868 -223 13 -14 14 -23 3 -72 -7 -31 -10 -59 -7
-63 13 -12 27 17 42 89 8 41 24 103 35 138 22 73 24 94 7 89 -6 -2 -18 -26
-25 -54 -25 -87 6 -89 -445 26 -221 57 -407 106 -411 110 -4 4 119 50 275 104
468 159 743 262 743 277 0 9 -148 51 -485 139 -267 69 -491 128 -497 133 -8 5
-7 21 3 60 17 64 17 67 1 67 -9 0 -27 -49 -52 -145z"/>
<path d="M6423 12736 c0 -8 4 -13 9 -10 4 3 8 -2 8 -11 0 -9 -4 -13 -10 -10
-5 3 -10 1 -10 -4 0 -17 20 -13 27 5 3 8 -1 22 -9 30 -13 13 -15 13 -15 0z"/>
<path d="M6476 12735 c4 -8 12 -15 20 -15 20 0 17 7 -6 20 -16 9 -18 8 -14 -5z"/>
<path d="M6530 12710 c0 -5 7 -10 15 -10 8 0 15 5 15 10 0 6 -7 10 -15 10 -8
0 -15 -4 -15 -10z"/>
<path d="M6475 12690 c-3 -11 -3 -24 0 -30 10 -16 -24 -24 -51 -11 -25 11 -32
6 -38 -31 -1 -7 -4 -17 -7 -23 -4 -5 -25 -66 -47 -135 -22 -69 -122 -375 -222
-680 -100 -305 -210 -643 -245 -750 -35 -107 -135 -415 -223 -685 -88 -269
-215 -659 -282 -865 -67 -206 -173 -535 -237 -730 -311 -959 -528 -1628 -775
-2385 -504 -1550 -548 -1686 -548 -1702 0 -8 44 -65 99 -127 141 -158 441
-466 455 -466 6 0 92 250 200 583 406 1257 746 2305 903 2787 90 278 218 672
284 875 66 204 208 638 314 965 107 327 206 633 220 680 15 47 118 366 230
710 381 1171 496 1532 490 1538 -3 3 -5 -1 -5 -8 0 -7 -3 -11 -6 -7 -3 3 4 19
16 35 22 30 20 59 -3 46 -7 -4 1 7 17 24 29 31 29 32 11 52 -13 14 -14 20 -5
20 27 0 -15 30 -87 64 -18 8 -33 22 -33 30 0 22 -18 20 -22 -1 -3 -16 -4 -16
-18 0 -34 40 -66 67 -78 67 -5 0 -15 7 -22 15 -7 8 -21 15 -32 15 -11 0 -33
11 -50 25 -16 14 -35 25 -43 25 -7 0 -18 7 -26 16 -7 8 -21 13 -31 11 -10 -3
-16 -1 -13 4 3 4 -8 15 -24 23 -16 9 -36 22 -44 31 -14 13 -16 13 -22 -5z m35
-60 c0 -5 11 -10 25 -10 14 0 25 -6 25 -13 0 -18 38 -48 58 -46 9 1 24 1 32 0
13 -1 13 -2 0 -11 -23 -15 -67 -12 -84 5 -8 8 -19 15 -24 15 -16 0 -62 41 -62
56 0 8 7 14 15 14 8 0 15 -4 15 -10z m-56 -25 c37 -34 32 -39 -14 -13 -22 13
-40 26 -40 31 0 15 28 6 54 -18z m97 -57 c14 -7 40 -25 60 -40 20 -16 42 -28
48 -28 7 0 25 -10 39 -21 l27 -22 -35 7 c-19 3 -40 13 -46 21 -6 8 -15 15 -19
15 -4 0 -20 11 -37 25 -16 14 -35 25 -43 25 -7 0 -18 7 -25 15 -15 18 -1 19
31 3z m169 -28 c0 -15 42 -40 67 -40 21 0 15 -18 -9 -26 -14 -4 -25 -1 -33 10
-7 9 -21 16 -32 16 -31 0 -73 24 -73 41 0 13 9 16 40 15 29 0 40 -5 40 -16z
m106 -85 c4 -8 17 -15 30 -15 13 0 24 -4 24 -10 0 -5 13 -10 30 -10 21 0 42
-11 71 -40 41 -39 41 -40 15 -40 -16 0 -26 -6 -26 -15 0 -16 -19 -12 -59 14
-21 13 -22 16 -5 21 9 4 18 15 19 27 1 15 -3 19 -22 15 -13 -2 -23 1 -23 7 0
6 -11 11 -25 11 -14 0 -25 5 -25 10 0 6 -7 10 -15 10 -8 0 -15 -7 -15 -15 0
-8 6 -15 14 -15 7 0 25 -11 40 -25 32 -30 22 -33 -14 -5 -14 11 -34 20 -46 20
-31 0 -36 11 -14 27 11 8 20 21 20 29 0 19 19 18 26 -1z"/>
<path d="M6927 12343 c-11 -11 -8 -20 9 -27 21 -8 34 1 27 19 -5 16 -25 20
-36 8z"/>
<path d="M6800 12549 c0 -5 5 -7 10 -4 6 3 10 8 10 11 0 2 -4 4 -10 4 -5 0
-10 -5 -10 -11z"/>
<path d="M7755 12411 c-3 -10 -3 -25 0 -33 3 -8 -1 -20 -9 -27 -9 -7 -63 -160
-122 -340 -58 -179 -187 -573 -285 -876 -99 -302 -202 -617 -229 -700 -27 -82
-150 -460 -273 -840 -474 -1454 -670 -2057 -825 -2535 -88 -272 -213 -655
-277 -850 -139 -425 -427 -1311 -669 -2059 -145 -447 -174 -546 -164 -559 36
-42 572 -432 596 -432 6 0 17 21 26 48 8 26 92 286 186 577 94 292 209 649
256 795 47 146 163 504 259 795 96 292 224 685 285 875 61 190 201 622 311
960 110 338 204 629 209 645 5 17 83 257 174 535 90 278 201 620 246 760 45
140 121 377 170 525 78 238 234 720 603 1865 58 179 107 334 109 345 2 11 5
22 8 25 3 3 11 22 17 43 8 28 8 35 0 30 -21 -13 -36 -11 -30 3 3 10 -2 14 -19
14 -32 0 -78 22 -78 38 0 6 -6 12 -14 12 -8 0 -22 7 -31 16 -14 15 -17 14 -34
-5 -16 -18 -23 -20 -47 -10 l-29 11 25 13 c23 13 24 14 6 21 -12 5 -21 3 -24
-4 -6 -18 -27 -14 -47 8 -18 20 -18 20 13 14 21 -4 32 -3 32 5 0 6 -6 11 -14
11 -7 0 -19 7 -26 15 -7 8 -27 17 -46 21 -24 4 -34 12 -34 25 0 12 -7 19 -20
19 -11 0 -20 4 -20 10 0 5 -11 12 -25 16 -14 3 -25 10 -25 14 0 11 -39 20 -56
13 -21 -8 -17 -23 6 -23 11 0 20 -4 20 -10 0 -5 5 -10 11 -10 6 0 24 -11 41
-25 16 -14 26 -25 21 -25 -5 0 -25 11 -45 25 -20 14 -41 25 -45 25 -4 0 -19 9
-33 20 -20 16 -22 20 -7 20 9 0 17 7 17 16 0 15 23 44 34 44 3 0 6 -4 6 -10 0
-16 38 -50 56 -50 14 0 14 3 4 15 -10 12 -10 15 4 15 9 0 16 5 16 10 0 6 -7
10 -15 10 -7 0 -18 6 -22 14 -4 8 -34 26 -66 40 -50 22 -58 29 -52 46 3 11 4
20 1 20 -2 0 -7 -8 -11 -19z m43 -95 c3 -14 -2 -17 -25 -14 -23 2 -28 -1 -26
-17 1 -11 0 -14 -3 -7 -3 6 -11 9 -17 5 -7 -3 -4 3 6 14 9 11 14 22 11 26 -3
3 -3 10 0 16 10 15 50 -3 54 -23z m178 -171 c9 -8 11 -15 6 -15 -5 0 -15 7
-22 15 -7 8 -9 15 -6 15 4 0 14 -7 22 -15z m267 -150 c20 -8 48 -27 64 -41 29
-28 19 -25 -29 8 -14 10 -34 18 -43 18 -9 0 -23 7 -31 15 -19 19 -6 19 39 0z"/>
<path d="M7807 12409 c7 -7 15 -10 18 -7 3 3 -2 9 -12 12 -14 6 -15 5 -6 -5z"/>
<path d="M19694 12356 c6 -47 5 -56 -11 -64 -28 -15 -904 -193 -933 -190 -19
2 -28 13 -41 48 -21 56 -39 65 -29 13 4 -21 35 -175 68 -343 33 -168 64 -329
68 -357 3 -29 9 -53 12 -53 6 0 214 38 250 46 12 2 22 11 22 20 0 13 -8 15
-50 9 -71 -10 -144 10 -175 47 -29 34 -43 81 -85 268 -18 86 -26 137 -19 141
17 10 479 102 486 96 10 -11 32 -131 33 -178 0 -62 -25 -93 -100 -120 -57 -21
-89 -43 -78 -55 3 -3 41 4 84 15 44 11 120 27 169 36 50 9 114 21 143 27 81
15 62 33 -35 33 -90 1 -107 9 -130 64 -17 41 -54 184 -48 189 7 8 428 92 433
87 13 -12 52 -247 52 -312 0 -66 -3 -75 -30 -106 -16 -19 -56 -48 -89 -66
-118 -63 -91 -70 75 -21 90 27 128 42 125 52 -2 7 -34 164 -72 348 -84 409
-77 380 -90 380 -8 0 -9 -17 -5 -54z"/>
<path d="M7840 12389 c0 -5 5 -7 10 -4 6 3 10 8 10 11 0 2 -4 4 -10 4 -5 0
-10 -5 -10 -11z"/>
<path d="M7938 12323 c6 -2 18 -2 25 0 6 3 1 5 -13 5 -14 0 -19 -2 -12 -5z"/>
<path d="M7015 12290 c-3 -5 -1 -10 4 -10 6 0 11 5 11 10 0 6 -2 10 -4 10 -3
0 -8 -4 -11 -10z"/>
<path d="M7920 12265 c0 -18 5 -25 20 -25 11 0 20 -7 20 -15 0 -9 9 -15 25
-15 15 0 36 -11 50 -26 13 -14 29 -23 34 -19 6 3 11 -1 11 -9 0 -11 13 -18 40
-22 22 -4 40 -12 40 -18 0 -12 45 -36 67 -36 7 0 12 -6 11 -12 -2 -7 7 -14 20
-16 12 -2 22 -8 22 -13 0 -5 9 -9 20 -9 49 0 9 56 -72 100 -15 8 -52 30 -82
48 -31 17 -61 32 -67 32 -6 0 -28 13 -48 28 -36 28 -83 52 -101 52 -6 0 -10
-11 -10 -25z"/>
<path d="M8355 12070 c-4 -6 -10 -8 -14 -6 -4 3 -8 0 -8 -7 0 -7 -4 -21 -9
-31 -6 -16 -4 -18 12 -12 10 5 25 9 31 9 8 0 9 5 4 11 -5 6 -7 19 -6 29 4 19
-1 22 -10 7z m-5 -30 c-6 -11 -13 -20 -16 -20 -2 0 0 9 6 20 6 11 13 20 16 20
2 0 0 -9 -6 -20z"/>
<path d="M9085 12072 c4 -7 2 -19 -4 -26 -9 -10 -7 -15 6 -20 15 -6 15 -8 3
-16 -9 -6 -10 -10 -3 -10 7 0 11 -12 10 -27 -1 -16 -6 -26 -9 -23 -4 3 -14 -4
-22 -15 -15 -20 -15 -20 -11 3 2 12 0 22 -6 22 -5 0 -9 -11 -9 -24 0 -14 -4
-27 -9 -30 -5 -3 -12 -18 -15 -33 -4 -16 -72 -226 -151 -468 -394 -1207 -639
-1959 -665 -2040 -16 -49 -116 -358 -223 -685 -107 -327 -242 -741 -300 -920
-58 -179 -149 -458 -202 -620 -53 -162 -154 -473 -225 -690 -246 -759 -480
-1479 -648 -1995 -502 -1539 -533 -1639 -515 -1653 52 -38 630 -318 639 -309
4 4 261 793 363 1117 34 107 149 461 256 785 106 325 244 748 306 940 61 193
192 595 290 895 191 587 652 2006 674 2080 8 25 108 335 223 690 116 355 276
850 357 1100 81 250 204 633 275 850 118 361 168 518 190 593 5 15 5 25 0 22
-4 -3 -6 4 -3 15 6 23 -15 28 -35 8 -9 -9 -12 -9 -12 0 0 7 5 12 10 12 6 0 10
5 10 10 0 6 -7 10 -15 10 -8 0 -15 6 -15 13 0 6 -17 19 -38 28 -95 41 -110 50
-116 64 -3 9 -18 15 -38 15 l-33 -1 35 -29 c19 -17 39 -30 45 -30 17 0 65 -24
65 -32 0 -5 -5 -8 -10 -8 -16 0 -95 43 -114 62 -8 9 -21 18 -28 21 -9 3 -7 9
7 21 18 14 18 15 3 16 -10 0 -18 5 -18 11 0 6 -9 8 -20 4 -16 -5 -20 -2 -20
14 0 14 -6 21 -20 21 -11 0 -20 7 -20 15 0 9 -9 15 -25 15 -14 0 -25 5 -25 10
0 6 -7 10 -15 10 -8 0 -15 -5 -15 -12 0 -7 -17 7 -39 30 -21 24 -48 44 -59 45
-19 1 -20 3 -6 18 10 11 14 29 11 51 -2 18 0 42 6 53 5 11 6 17 2 13 -4 -4
-14 0 -22 10 -8 9 -12 11 -8 4z m-1 -178 c23 -22 20 -24 -14 -11 -16 6 -30 15
-30 19 0 14 28 9 44 -8z m153 -82 c54 -22 56 -33 3 -19 -22 6 -40 15 -40 19 0
4 -6 8 -14 8 -8 0 -18 5 -22 12 -8 12 -3 11 73 -20z m99 -67 c9 -8 11 -15 6
-15 -5 0 -15 7 -22 15 -7 8 -9 15 -6 15 4 0 14 -7 22 -15z m264 -157 c0 -5 -7
-8 -15 -8 -8 0 -15 2 -15 4 0 2 -3 12 -6 21 -6 15 -4 15 15 4 11 -8 21 -17 21
-21z"/>
<path d="M9118 11967 c-3 -27 0 -33 12 -30 8 2 26 -7 39 -21 14 -14 31 -26 38
-26 8 0 16 -7 19 -15 4 -8 15 -15 26 -15 17 0 18 3 8 15 -10 12 -10 15 4 15
10 0 16 -9 16 -25 0 -18 5 -25 20 -25 11 0 20 -7 20 -15 0 -8 9 -15 20 -15 12
0 20 7 20 17 0 21 17 6 22 -20 3 -18 21 -30 83 -58 17 -7 38 -20 47 -29 40
-36 49 -40 85 -41 30 0 34 -2 18 -9 -18 -8 -18 -9 -2 -9 10 -1 20 -8 23 -16 4
-8 14 -15 24 -15 10 0 21 -6 24 -12 3 -7 3 2 0 21 -3 20 -15 42 -31 55 -39 32
-117 75 -126 69 -4 -2 -6 1 -5 8 2 6 -18 19 -45 29 -26 9 -59 27 -74 39 -14
13 -53 37 -87 54 -34 17 -74 41 -89 54 -16 13 -34 23 -42 23 -7 0 -18 7 -25
15 -20 25 -38 17 -42 -18z"/>
<path d="M9468 11843 c7 -3 16 -2 19 1 4 3 -2 6 -13 5 -11 0 -14 -3 -6 -6z"/>
<path d="M9695 11679 c-4 -6 -5 -12 -2 -15 2 -3 7 2 10 11 7 17 1 20 -8 4z"/>
<path d="M120 11606 c0 -23 -18 -180 -40 -351 -22 -170 -40 -322 -40 -337 0
-44 17 -32 26 18 5 26 16 51 25 57 10 6 161 -9 484 -51 523 -68 501 -62 491
-139 -6 -44 10 -70 19 -31 2 13 18 129 35 258 17 129 40 293 50 364 11 71 20
136 20 145 0 14 -23 20 -122 34 -68 10 -131 17 -141 17 -38 0 -10 -22 58 -45
97 -32 135 -74 135 -150 0 -74 -30 -348 -39 -358 -7 -6 -490 50 -500 59 -7 6
21 169 34 201 18 44 61 63 139 63 62 0 93 14 66 30 -6 4 -52 10 -100 14 -49 4
-142 15 -206 26 -65 10 -121 17 -126 14 -19 -12 -4 -23 60 -43 40 -12 78 -31
91 -45 23 -25 24 -30 18 -137 -3 -61 -8 -113 -11 -116 -6 -6 -429 48 -437 56
-7 6 13 166 32 261 24 119 71 162 192 176 57 7 77 18 61 34 -5 4 -69 10 -141
12 l-133 5 0 -41z"/>
<path d="M19600 11151 c-82 -25 -137 -79 -185 -185 -18 -39 -46 -100 -63 -136
-64 -141 -131 -194 -247 -194 -111 0 -180 64 -192 178 -13 128 55 214 212 268
74 25 83 44 20 42 -244 -9 -280 -12 -283 -28 -3 -11 4 -16 23 -16 14 0 28 -6
31 -14 3 -8 -4 -54 -16 -103 -17 -66 -21 -103 -17 -151 19 -199 195 -340 375
-301 107 22 179 105 261 301 60 141 86 180 144 210 53 27 148 30 194 5 67 -36
100 -130 73 -211 -17 -52 -86 -118 -153 -146 -60 -25 -81 -58 -29 -46 15 3 78
11 140 18 71 7 111 15 109 22 -2 6 -14 12 -26 14 -32 5 -35 22 -17 101 20 88
20 124 0 190 -19 66 -81 136 -149 167 -52 25 -150 31 -205 15z"/>
<path d="M16 10528 c-9 -45 -15 -367 -7 -373 10 -6 21 28 21 66 0 53 -7 53
496 35 257 -9 475 -21 485 -26 12 -7 19 -24 21 -57 2 -26 9 -48 16 -51 9 -3
12 23 12 110 0 62 3 150 7 196 4 57 3 82 -5 82 -6 0 -14 -17 -17 -37 -10 -59
-15 -71 -29 -76 -20 -8 -928 25 -953 34 -20 7 -23 16 -23 58 0 52 -16 78 -24
39z"/>
<path d="M18936 9988 c-3 -172 -9 -354 -12 -404 l-7 -91 139 -5 c77 -3 143 -4
147 -1 18 11 -16 31 -62 36 -62 7 -122 38 -147 74 -17 25 -19 51 -22 232 l-4
204 144 -6 c78 -4 194 -7 256 -7 l112 0 0 -82 c0 -155 -21 -185 -144 -203 -45
-7 -71 -15 -71 -23 0 -10 51 -13 222 -15 227 -2 279 7 169 29 -79 16 -112 32
-125 62 -7 14 -15 72 -18 129 l-6 103 84 0 c46 0 148 -3 227 -7 l142 -6 0
-101 c-1 -131 -15 -240 -37 -277 -19 -33 -95 -74 -155 -85 -37 -6 -66 -28 -51
-37 7 -4 265 12 269 16 1 1 5 172 9 381 6 315 5 378 -7 374 -8 -3 -14 -23 -16
-51 -2 -32 -9 -50 -20 -56 -25 -13 -951 6 -967 19 -7 6 -16 33 -20 61 -4 27
-10 49 -14 49 -5 0 -11 -141 -15 -312z"/>
<path d="M960 9839 c-25 -4 -96 -8 -158 -8 -86 -1 -113 -4 -110 -13 3 -7 32
-18 65 -25 214 -43 313 -149 301 -323 -9 -120 -75 -208 -203 -270 -106 -52
-173 -64 -350 -65 -142 0 -168 3 -233 24 -99 32 -170 84 -204 147 -56 104 -44
234 29 315 43 47 73 65 168 95 39 12 71 28 73 36 2 10 -29 13 -163 11 -91 -1
-166 -5 -166 -10 -1 -4 10 -14 25 -21 15 -8 30 -20 33 -28 3 -8 -9 -47 -27
-86 -53 -120 -49 -271 12 -397 46 -95 159 -191 274 -232 85 -30 247 -37 348
-15 204 46 361 194 406 385 30 127 -3 294 -75 380 l-29 33 25 19 c13 10 32 21
42 25 9 3 17 12 17 20 0 16 -27 17 -100 3z"/>
<path d="M18926 9363 c-3 -3 -6 -27 -6 -52 0 -25 -7 -84 -15 -131 -17 -98 -19
-150 -5 -150 10 0 13 11 28 85 5 27 14 41 26 43 10 2 76 -24 147 -59 128 -62
129 -63 124 -93 -2 -17 -12 -90 -21 -163 l-17 -131 -143 -27 c-79 -15 -148
-24 -155 -19 -8 5 -10 30 -6 85 4 50 3 81 -4 85 -6 3 -13 4 -16 1 -3 -4 -11
-68 -19 -144 -7 -76 -20 -178 -28 -228 -9 -49 -16 -96 -16 -102 0 -24 20 -13
26 15 14 66 27 94 47 103 12 5 253 63 535 128 282 66 516 122 519 125 8 7 72
-26 -472 245 -258 128 -478 240 -487 249 -13 11 -18 30 -18 73 0 54 -9 77 -24
62z m547 -444 c111 -56 198 -103 192 -105 -18 -6 -422 -94 -430 -94 -4 0 -5
28 -1 63 12 114 29 237 32 237 2 0 95 -46 207 -101z"/>
<path d="M799 8726 c-106 -38 -163 -122 -234 -348 -37 -118 -71 -169 -131
-199 -63 -30 -145 -32 -194 -4 -39 23 -80 93 -80 138 0 86 62 176 149 216 28
14 51 30 51 38 0 17 -10 16 -73 -2 -29 -8 -83 -18 -122 -22 -51 -6 -70 -12
-70 -23 0 -8 11 -17 25 -20 28 -7 29 -15 15 -131 -15 -128 41 -238 149 -294
98 -50 223 -38 311 30 39 29 94 133 130 244 50 157 99 226 184 256 153 54 270
-30 271 -193 0 -38 -6 -78 -16 -98 -24 -50 -87 -102 -170 -140 -112 -51 -98
-67 33 -40 37 8 105 17 151 21 60 5 82 11 82 21 0 9 -11 14 -30 14 -39 0 -45
15 -29 87 19 91 15 189 -11 256 -27 71 -100 149 -172 182 -60 28 -158 33 -219
11z"/>
<path d="M18776 8251 c-10 -16 -97 -384 -92 -388 11 -11 24 9 35 50 19 76 13
76 273 12 128 -31 237 -61 242 -65 11 -11 -36 -113 -67 -144 -41 -41 -90 -48
-208 -31 -147 21 -195 19 -255 -9 -66 -31 -110 -85 -126 -154 -15 -70 1 -107
47 -107 25 0 31 4 33 28 3 23 -1 28 -27 33 -37 8 -39 23 -7 53 23 22 27 22
197 15 123 -4 187 -3 218 5 57 16 130 85 162 152 l24 53 6 -110 c4 -83 10
-118 26 -149 43 -81 115 -127 202 -128 135 -1 217 95 260 305 11 53 34 147 51
210 32 121 35 138 21 138 -5 0 -17 -24 -27 -52 -17 -47 -23 -53 -49 -56 -34
-3 -911 210 -927 226 -6 6 -6 28 0 61 9 47 2 75 -12 52z m707 -447 c100 -25
187 -50 194 -56 37 -30 -8 -167 -66 -201 -42 -24 -103 -31 -163 -17 -137 32
-192 93 -191 210 0 77 9 110 29 110 8 0 97 -21 197 -46z"/>
<path d="M11708 7173 c-211 -656 -748 -2310 -919 -2828 -21 -65 -36 -122 -31
-126 8 -8 201 -148 1352 -984 476 -345 985 -716 1133 -823 l267 -194 113 81
c809 584 2652 1930 2651 1937 -1 5 -240 735 -530 1622 l-528 1612 -1706 0
-1706 0 -96 -297z m2691 -949 c80 -20 175 -64 226 -107 51 -42 111 -137 135
-215 15 -49 20 -93 20 -183 l0 -119 -154 0 -154 0 -4 93 c-5 120 -30 176 -96
215 -88 51 -228 29 -280 -45 -47 -67 -47 -70 -47 -738 0 -596 1 -632 19 -665
41 -78 95 -110 183 -110 148 2 210 68 221 237 l5 83 158 0 159 0 0 -97 c-1
-277 -118 -443 -360 -509 -91 -25 -284 -25 -365 0 -181 54 -304 181 -335 346
-14 74 -13 1368 1 1446 33 179 169 315 369 368 74 20 218 20 299 0z m-1416
-37 c200 -58 323 -194 362 -400 22 -115 22 -1189 0 -1292 -42 -201 -181 -343
-390 -401 -48 -14 -121 -18 -367 -21 l-308 -5 0 1072 0 1071 323 -3 c264 -4
332 -7 380 -21z"/>
<path d="M12610 5145 l0 -765 109 0 c161 0 231 30 277 122 40 78 46 180 42
726 l-3 497 -26 56 c-48 102 -108 129 -286 129 l-113 0 0 -765z"/>
<path d="M1080 7412 c0 -16 130 -376 139 -385 18 -18 19 12 4 62 -21 65 -14
79 58 108 109 45 184 25 233 -60 123 -213 -30 -443 -370 -556 -289 -97 -511
-38 -583 153 -37 98 -25 179 38 261 30 40 126 110 174 128 9 3 9 8 2 16 -8 8
-46 -1 -140 -33 -72 -24 -145 -47 -163 -51 -40 -8 -41 -24 -2 -32 42 -8 53
-34 45 -101 -21 -181 86 -390 241 -474 251 -136 664 -16 788 229 30 59 56 159
56 216 0 131 -69 309 -153 390 -86 84 -92 86 -197 52 -103 -33 -109 -31 -133
39 -12 37 -37 61 -37 38z"/>
<path d="M18695 7146 c-253 -62 -431 -324 -374 -552 6 -25 9 -48 5 -51 -3 -4
-25 -9 -48 -12 -69 -10 -56 -27 46 -60 52 -16 125 -44 162 -61 37 -16 73 -30
80 -30 26 0 14 19 -33 51 -126 85 -183 169 -183 275 0 80 23 143 72 199 100
113 263 141 476 79 219 -64 376 -175 440 -313 20 -44 24 -64 19 -111 -10 -112
-69 -201 -159 -240 -48 -21 -63 -22 -166 -17 -142 8 -143 -3 -6 -59 54 -22
118 -50 142 -63 62 -32 83 -25 48 15 -14 18 -26 34 -26 37 0 2 33 37 73 78 58
58 79 88 100 142 57 142 54 266 -9 396 -106 217 -416 357 -659 297z"/>
<path d="M1381 6125 c-248 -124 -458 -225 -465 -225 -7 0 -23 23 -36 50 -21
44 -50 68 -50 40 0 -19 130 -270 140 -270 15 0 12 20 -10 69 -11 24 -20 49
-20 57 0 14 638 340 647 330 3 -3 -96 -183 -221 -399 -124 -217 -226 -398
-226 -402 0 -17 122 -255 131 -255 13 0 11 15 -6 57 -22 53 -19 87 13 121 36
38 785 414 816 410 14 -2 31 -21 49 -55 16 -29 32 -53 38 -53 19 0 8 37 -29
101 -21 36 -49 91 -62 123 -23 54 -45 84 -55 74 -3 -3 6 -31 19 -63 13 -33 22
-64 19 -70 -4 -12 -754 -387 -761 -381 -2 2 61 114 139 248 245 418 400 701
391 710 -5 5 -200 -86 -461 -217z"/>
<path d="M18056 6116 c-47 -91 -86 -171 -86 -178 1 -7 21 10 45 37 l44 50 133
-68 c73 -38 175 -91 226 -119 l93 -50 -97 -186 c-53 -103 -102 -193 -109 -201
-11 -11 -48 5 -230 100 -120 63 -220 120 -223 128 -3 8 2 34 11 59 19 49 14
68 -9 37 -22 -29 -164 -303 -164 -315 0 -21 18 -8 44 30 14 22 34 40 44 40 19
-1 813 -418 842 -443 19 -16 19 -17 -1 -62 -20 -46 -20 -63 0 -51 13 8 171
309 171 326 0 19 -17 7 -42 -30 -17 -24 -32 -35 -49 -35 -28 1 -359 171 -359
186 0 7 194 383 205 397 3 3 290 -148 343 -180 36 -22 36 -26 8 -90 -14 -32
-14 -38 -2 -38 8 0 26 26 41 58 14 31 53 105 86 164 32 58 59 109 59 112 0 3
-6 6 -13 6 -7 0 -23 -18 -36 -40 -15 -27 -29 -40 -43 -40 -19 0 -799 404 -844
437 -16 12 -17 17 -5 46 20 48 25 77 13 77 -6 0 -49 -74 -96 -164z"/>
<path d="M2195 5236 c-72 -23 -139 -62 -415 -246 -150 -99 -279 -180 -287
-180 -7 0 -28 20 -45 45 -19 27 -36 41 -41 36 -9 -9 128 -231 151 -245 23 -14
22 16 -3 58 -14 24 -23 50 -20 57 7 19 560 383 630 415 31 14 83 28 115 31 81
8 154 -27 206 -98 93 -127 85 -230 -28 -335 -52 -49 -605 -422 -639 -431 -11
-3 -27 9 -44 31 -24 32 -55 48 -55 29 0 -18 204 -313 216 -313 19 0 18 5 -12
55 -14 25 -23 49 -19 55 4 6 135 97 293 202 397 265 437 306 437 449 0 69 -4
83 -42 161 -80 160 -178 239 -297 237 -34 0 -79 -6 -101 -13z"/>
<path d="M17210 4720 c-63 -83 -116 -155 -118 -160 -8 -24 26 -7 51 25 17 22
37 35 51 35 14 0 93 -53 207 -140 101 -77 185 -144 187 -148 4 -13 -94 -138
-127 -161 -41 -29 -69 -26 -145 14 -76 40 -76 40 -76 21 0 -8 39 -43 86 -77
48 -34 124 -93 170 -131 46 -37 88 -68 94 -68 21 0 8 24 -40 77 -38 42 -50 62
-50 87 0 33 49 125 98 183 l27 33 177 -136 177 -136 -60 -82 c-159 -217 -205
-243 -337 -195 -121 44 -139 32 -39 -27 34 -21 87 -55 118 -75 l56 -38 50 72
c28 40 130 176 227 302 96 127 176 233 176 238 0 18 -29 4 -57 -28 -17 -19
-37 -35 -45 -35 -16 0 -747 559 -762 583 -9 14 -6 26 12 57 23 40 28 60 14 60
-4 0 -59 -68 -122 -150z"/>
<path d="M2798 4340 c-166 -28 -341 -152 -429 -304 -68 -119 -91 -279 -56
-398 37 -123 156 -248 284 -299 82 -32 241 -33 327 -1 216 80 378 270 408 479
46 321 -215 576 -534 523z m330 -99 c125 -64 176 -222 118 -364 -35 -84 -69
-130 -166 -227 -204 -205 -429 -296 -567 -229 -101 49 -165 171 -145 275 31
150 178 336 363 460 162 107 297 136 397 85z"/>
<path d="M16723 4105 c-5 -8 -127 -136 -272 -285 l-264 -272 99 -99 c61 -61
102 -95 108 -89 6 6 3 18 -8 32 -85 117 -97 168 -53 233 35 51 240 275 252
274 6 0 90 -77 188 -172 l179 -172 -43 -49 c-60 -68 -115 -106 -154 -106 -20
0 -54 15 -94 40 -34 22 -66 40 -71 40 -24 0 -6 -27 53 -79 34 -30 105 -97 158
-148 52 -51 98 -93 102 -93 15 0 5 24 -33 77 -54 75 -53 104 4 180 24 32 58
71 74 87 l30 28 160 -153 160 -153 -56 -65 c-82 -93 -198 -189 -238 -197 -37
-7 -89 7 -153 42 -46 25 -71 30 -71 15 0 -5 47 -48 105 -95 l105 -86 33 37
c17 21 134 145 259 276 126 132 225 243 222 248 -3 5 -24 -6 -47 -26 -22 -19
-44 -35 -49 -35 -9 0 -61 48 -446 415 -139 131 -255 248 -258 258 -4 12 5 32
25 57 17 21 31 41 31 44 0 12 -29 5 -37 -9z"/>
<path d="M3706 3632 c-3 -5 13 -30 34 -56 22 -27 40 -53 40 -60 0 -6 -64 -80
-141 -163 -136 -146 -144 -153 -213 -179 -39 -15 -152 -59 -251 -97 -260 -101
-256 -100 -315 -50 -16 13 -36 22 -42 20 -15 -6 199 -217 220 -217 19 0 15 10
-23 51 -38 42 -43 60 -21 78 17 15 467 183 473 177 5 -5 -66 -270 -109 -404
-16 -51 -36 -96 -44 -99 -8 -3 -33 8 -55 23 -22 16 -46 33 -54 39 -8 5 -17 6
-21 2 -4 -4 24 -35 62 -69 38 -34 112 -104 165 -156 63 -61 99 -89 104 -82 4
7 -8 27 -29 49 -21 22 -36 47 -36 61 0 14 39 159 87 323 l87 298 136 141 135
141 30 -15 c17 -9 39 -25 49 -37 18 -20 56 -29 56 -13 0 4 -21 26 -47 47 -27
22 -98 89 -160 148 -61 59 -114 104 -117 99z"/>
<path d="M15743 3157 c-148 -122 -287 -235 -307 -252 l-37 -30 53 -66 c118
-146 126 -155 139 -142 9 9 5 23 -21 62 -33 53 -47 112 -36 155 3 14 32 53 63
87 58 62 232 214 237 208 2 -2 141 -170 309 -373 169 -203 307 -375 307 -383
0 -9 -17 -31 -37 -49 -27 -25 -34 -37 -26 -45 8 -8 27 4 70 44 33 30 95 82
139 117 43 34 83 69 87 76 13 23 -16 17 -53 -11 -19 -14 -40 -25 -47 -25 -15
0 -623 726 -623 744 0 7 16 31 35 53 20 23 32 44 27 47 -4 2 -130 -95 -279
-217z"/>
<path d="M4642 2788 c-17 -17 -15 -55 4 -62 26 -10 33 -7 46 19 13 24 15 24
36 9 36 -25 29 -80 -22 -182 -51 -101 -86 -208 -86 -261 0 -47 39 -128 87
-182 26 -29 32 -40 18 -35 -135 54 -195 63 -269 42 -71 -21 -117 -62 -146
-128 -25 -59 -23 -123 6 -180 27 -54 103 -126 189 -178 44 -27 125 -81 180
-119 93 -66 125 -82 125 -63 0 4 -20 25 -45 45 -25 21 -45 42 -45 47 0 13 513
782 533 798 13 11 23 9 66 -12 55 -28 61 -30 61 -17 0 13 -339 235 -348 227
-4 -4 14 -26 41 -48 26 -22 47 -47 47 -55 0 -14 -235 -370 -265 -402 -11 -11
-20 -6 -58 28 -59 54 -81 101 -73 153 4 21 34 93 67 160 86 172 89 254 12 339
-57 63 -129 89 -161 57z m66 -718 c19 -5 53 -21 78 -35 l44 -26 -117 -174
c-132 -199 -137 -202 -214 -142 -84 64 -99 148 -44 243 73 124 149 164 253
134z"/>
<path d="M14970 2574 c-156 -101 -303 -197 -329 -211 -25 -15 -48 -28 -50 -29
-5 -4 42 -84 102 -173 61 -91 82 -85 43 12 -32 81 -33 109 -2 162 29 49 172
161 303 239 15 9 543 -780 543 -811 0 -12 -14 -30 -35 -44 -31 -21 -47 -49
-28 -49 3 0 78 48 165 106 102 68 156 110 150 116 -7 7 -27 0 -56 -17 -25 -14
-50 -23 -56 -20 -16 10 -522 776 -528 799 -4 14 7 30 38 56 24 21 39 40 33 43
-6 4 -138 -77 -293 -179z"/>
<path d="M5675 2090 c-229 -46 -409 -246 -453 -505 -14 -83 -14 -99 0 -173 9
-45 28 -106 42 -137 67 -147 243 -255 416 -255 130 0 242 50 346 154 149 149
217 375 169 561 -63 246 -290 401 -520 355z m262 -66 c178 -87 202 -307 63
-590 -118 -242 -278 -385 -415 -371 -59 6 -126 36 -168 76 -48 43 -70 98 -75
182 -16 265 202 646 414 725 51 18 115 11 181 -22z"/>
<path d="M14128 2074 c-131 -31 -254 -127 -302 -234 -39 -86 -59 -192 -52
-267 33 -335 323 -598 609 -552 192 31 350 185 388 377 34 179 -54 425 -199
553 -62 54 -168 107 -251 125 -80 17 -119 16 -193 -2z m151 -65 c112 -56 202
-165 291 -353 132 -277 115 -467 -50 -560 -72 -41 -160 -43 -233 -7 -181 89
-375 410 -394 651 -10 135 31 215 138 269 87 43 161 43 248 0z"/>
<path d="M13137 1643 c-2 -4 -8 -126 -12 -270 -3 -145 -10 -274 -13 -288 -7
-24 -15 -16 -123 107 -63 73 -146 170 -183 215 -37 45 -74 84 -82 87 -12 5
-14 -76 -14 -533 0 -297 -3 -547 -6 -556 -4 -9 -30 -28 -58 -42 -79 -40 -36
-40 93 2 159 51 166 54 154 66 -6 6 -25 6 -55 -2 -25 -7 -52 -10 -60 -6 -23 8
-30 136 -26 510 l3 318 163 -186 162 -187 0 -51 c0 -29 -5 -105 -10 -171 -10
-137 -20 -154 -101 -181 -28 -10 -49 -23 -49 -31 0 -20 8 -18 97 18 43 17 181
66 307 109 248 85 290 105 191 95 -33 -4 -65 -3 -71 1 -6 5 -74 83 -151 174
l-141 165 9 195 c5 107 11 197 12 201 2 7 314 -370 451 -546 87 -112 87 -118
1 -151 -25 -9 -45 -23 -45 -31 0 -20 8 -18 97 17 43 17 130 48 193 69 110 37
148 60 98 60 -13 0 -39 -5 -58 -10 -29 -8 -39 -7 -57 7 -12 10 -168 194 -346
408 -329 396 -361 433 -370 418z m72 -919 c40 -53 74 -103 75 -112 1 -18 -51
-47 -111 -60 -59 -13 -63 -9 -63 72 0 88 11 196 19 195 3 0 39 -43 80 -95z"/>
<path d="M6880 1605 c0 -3 21 -15 47 -28 25 -12 51 -29 56 -39 8 -12 -8 -68
-71 -239 -45 -122 -84 -224 -86 -227 -7 -7 -126 36 -171 61 -60 34 -70 63 -53
151 8 40 13 77 10 84 -9 27 -22 8 -47 -70 -15 -46 -50 -141 -77 -211 -33 -84
-47 -132 -40 -139 6 -6 20 10 40 46 42 74 68 96 111 96 40 0 211 -49 211 -61
0 -9 -137 -386 -147 -404 -6 -11 -36 -3 -142 35 -223 82 -246 106 -243 258 1
66 -2 92 -10 90 -14 -5 -82 -259 -71 -268 4 -4 46 -20 93 -35 47 -15 200 -70
340 -121 140 -52 260 -94 267 -94 28 0 11 22 -32 40 -72 31 -85 -25 123 540
66 179 128 344 137 368 19 46 32 50 95 32 60 -17 55 7 -7 30 -256 96 -333 121
-333 105z"/>
<path d="M12188 1318 c-3 -32 -4 -33 -48 -31 -206 7 -214 6 -274 -17 -76 -29
-147 -95 -183 -169 -23 -46 -28 -69 -28 -131 1 -64 5 -83 30 -129 49 -89 113
-127 319 -187 186 -54 231 -89 256 -197 26 -119 -46 -210 -166 -210 -85 0
-165 58 -215 154 -35 71 -53 40 -24 -42 9 -24 22 -78 29 -119 9 -53 17 -75 27
-75 8 0 15 12 17 27 4 35 16 38 98 28 209 -26 356 103 342 300 -11 149 -90
224 -294 279 -181 50 -264 106 -292 199 -46 152 36 261 196 262 109 0 178 -51
239 -177 19 -40 38 -73 43 -73 19 0 19 20 0 84 -10 36 -24 109 -31 161 -8 63
-17 95 -25 95 -7 0 -14 -15 -16 -32z"/>
<path d="M8073 1230 c-163 -65 -242 -246 -170 -392 28 -57 103 -134 238 -244
92 -75 114 -115 113 -200 -2 -115 -67 -189 -166 -187 -105 2 -192 96 -206 225
-8 71 -24 82 -34 23 -22 -124 -37 -202 -43 -217 -10 -26 21 -23 35 2 15 27 23
26 115 -20 97 -49 160 -59 237 -36 119 34 200 148 200 282 1 105 -25 140 -245
336 -86 78 -117 131 -117 204 0 95 36 166 101 199 37 19 130 19 176 0 103 -43
143 -110 152 -249 5 -70 9 -91 20 -91 11 0 20 27 32 98 10 54 24 119 33 144 9
26 16 55 16 65 0 24 -26 23 -33 -2 -8 -30 -35 -35 -66 -12 -15 11 -56 35 -92
53 -56 28 -76 33 -154 36 -73 2 -100 -1 -142 -17z"/>
<path d="M11140 1130 c-191 -21 -173 -17 -165 -30 3 -5 28 -10 55 -10 37 0 52
-4 59 -18 10 -19 58 -489 50 -496 -6 -7 -440 -48 -446 -42 -7 7 -54 489 -48
503 2 7 22 15 43 19 44 7 70 20 60 29 -6 7 -339 -21 -365 -30 -32 -11 -8 -25
41 -25 30 0 57 -4 60 -9 4 -5 27 -221 52 -481 34 -348 43 -475 34 -484 -6 -8
-31 -17 -56 -21 -50 -7 -57 -32 -8 -28 96 7 275 24 307 29 54 8 46 24 -13 24
-43 0 -52 3 -61 23 -9 20 -50 398 -44 405 4 5 445 45 449 41 9 -8 37 -327 34
-376 l-3 -48 -47 -10 c-46 -10 -63 -31 -23 -29 56 4 294 26 323 30 52 8 37 24
-22 24 -30 0 -58 5 -61 11 -9 13 -97 915 -93 949 3 21 10 27 52 35 55 12 76
36 29 34 -15 -1 -102 -9 -193 -19z"/>
<path d="M9020 1101 c0 -6 20 -13 45 -17 25 -3 55 -14 65 -23 20 -16 20 -18
-5 -250 -14 -129 -26 -236 -28 -237 -2 -2 -21 2 -43 8 -21 6 -75 11 -119 11
-67 1 -90 -4 -143 -28 -103 -46 -162 -136 -162 -245 0 -129 77 -213 224 -244
85 -19 455 -58 467 -50 17 10 -2 24 -31 24 -16 0 -40 4 -54 10 -23 8 -26 15
-26 57 0 65 87 910 95 923 3 5 33 10 66 10 58 0 80 15 37 25 -32 7 -314 35
-354 35 -19 0 -34 -4 -34 -9z m74 -593 c-3 -24 -13 -124 -23 -222 -20 -196
-24 -206 -85 -206 -80 0 -157 45 -182 107 -17 39 -18 153 -3 207 29 104 104
156 226 156 l73 0 -6 -42z"/>
<path d="M9707 1064 c-15 -15 -5 -22 42 -28 27 -3 54 -13 60 -20 9 -10 10
-138 4 -486 -9 -533 -3 -500 -90 -500 -24 0 -43 -4 -43 -8 0 -9 195 -22 322
-22 79 0 98 16 31 26 -27 3 -54 12 -62 18 -11 9 -12 85 -6 475 4 256 11 475
16 488 6 18 17 22 55 25 27 2 49 8 52 16 3 9 -36 12 -171 12 -97 0 -182 2
-189 5 -8 3 -17 2 -21 -1z"/>
</g>
</svg>
