<?xml version="1.0" standalone="no"?>
<!DOCTYPE svg PUBLIC "-//W3C//DTD SVG 20010904//EN"
 "http://www.w3.org/TR/2001/REC-SVG-20010904/DTD/svg10.dtd">
<svg version="1.0" xmlns="http://www.w3.org/2000/svg"
 width="225.000000pt" height="225.000000pt" viewBox="0 0 225.000000 225.000000"
 preserveAspectRatio="xMidYMid meet">

<g transform="translate(0.000000,225.000000) scale(0.100000,-0.100000)"
fill="#000000" stroke="none">
<path d="M864 1728 l-20 -63 -73 -3 -73 -3 56 -40 c31 -22 56 -44 56 -49 0 -4
-8 -35 -19 -69 l-19 -60 59 41 58 41 55 -42 c31 -23 56 -40 56 -39 0 2 -9 32
-20 67 -11 36 -18 67 -16 68 2 2 27 22 57 43 l53 40 -71 0 -71 0 -22 65 c-12
36 -23 65 -24 65 -1 0 -11 -28 -22 -62z"/>
<path d="M1341 1728 l-23 -68 -71 0 -71 0 53 -40 c30 -21 55 -41 57 -43 3 -2
-5 -33 -16 -68 -11 -35 -20 -65 -20 -67 0 -1 25 16 56 39 l56 41 59 -41 c33
-23 59 -40 59 -38 0 2 -9 30 -20 62 -11 32 -20 62 -20 66 0 4 25 26 56 48 l56
40 -73 3 -72 3 -22 65 -22 65 -22 -67z"/>
<path d="M98 1515 c-8 -19 -8 -28 2 -40 11 -13 47 -15 258 -13 221 3 246 5
256 21 8 12 8 22 0 35 -10 15 -36 17 -258 20 l-246 2 -12 -25z"/>
<path d="M1642 1528 c-7 -7 -12 -19 -12 -28 0 -37 18 -40 266 -40 205 0 243 2
254 15 10 12 10 21 2 40 l-12 25 -243 0 c-176 0 -246 -3 -255 -12z"/>
<path d="M200 1405 c-7 -8 -10 -25 -6 -40 l6 -25 202 2 c179 3 202 5 212 21 8
12 8 22 0 35 -10 15 -33 17 -206 20 -164 2 -197 0 -208 -13z"/>
<path d="M660 1401 c-5 -11 -10 -74 -10 -141 0 -131 8 -160 43 -160 41 0 47
17 47 132 l0 108 385 0 385 0 0 -108 c0 -71 4 -112 12 -120 18 -18 56 -14 68
7 13 26 13 256 0 282 -10 18 -26 19 -465 19 -439 0 -455 -1 -465 -19z"/>
<path d="M1642 1408 c-16 -16 -15 -43 2 -57 9 -8 74 -11 212 -9 l199 3 3 23
c7 49 -6 52 -212 52 -136 0 -196 -4 -204 -12z"/>
<path d="M290 1280 c-8 -14 -8 -26 0 -40 10 -19 19 -20 162 -18 131 3 152 5
162 21 8 12 8 22 0 35 -10 15 -31 17 -162 20 -143 2 -152 1 -162 -18z"/>
<path d="M1090 1281 c-5 -11 -10 -38 -10 -60 l0 -41 -144 0 c-160 0 -180 -7
-158 -55 11 -24 14 -25 122 -25 60 0 110 -3 110 -8 0 -4 -58 -66 -130 -137
-71 -71 -130 -137 -130 -145 0 -22 20 -40 44 -40 13 0 70 49 153 132 l133 133
0 -206 c0 -215 3 -229 45 -229 42 0 45 14 45 229 l0 206 133 -133 c83 -83 140
-132 153 -132 24 0 44 18 44 40 0 8 -58 74 -130 145 -71 71 -130 133 -130 137
0 4 50 9 111 10 94 3 114 6 123 21 8 12 8 22 0 35 -10 15 -31 17 -158 20
l-146 3 0 47 c0 27 -5 53 -12 60 -18 18 -56 14 -68 -7z"/>
<path d="M1642 1288 c-7 -7 -12 -19 -12 -28 0 -35 21 -40 172 -40 137 0 148 1
158 20 8 14 8 26 0 40 -10 19 -21 20 -158 20 -102 0 -152 -4 -160 -12z"/>
<path d="M392 1168 c-6 -6 -12 -20 -12 -29 0 -32 25 -40 125 -37 80 2 100 6
109 21 8 12 8 22 0 35 -9 14 -29 18 -110 20 -69 2 -103 -1 -112 -10z"/>
<path d="M1642 1168 c-6 -6 -12 -20 -12 -29 0 -32 25 -40 125 -37 80 2 100 6
109 21 8 12 8 22 0 35 -9 14 -29 18 -110 20 -69 2 -103 -1 -112 -10z"/>
<path d="M547 1053 c-12 -11 -8 -76 8 -137 66 -254 304 -436 570 -436 158 0
302 59 413 168 102 101 177 263 170 364 -3 38 -6 43 -29 46 -34 4 -44 -11 -57
-83 -38 -199 -198 -358 -402 -401 -265 -56 -534 125 -590 396 -7 36 -17 71
-23 78 -10 13 -49 17 -60 5z"/>
</g>
</svg>
