<?xml version="1.0" standalone="no"?>
<!DOCTYPE svg PUBLIC "-//W3C//DTD SVG 20010904//EN"
 "http://www.w3.org/TR/2001/REC-SVG-20010904/DTD/svg10.dtd">
<svg version="1.0" xmlns="http://www.w3.org/2000/svg"
 width="473.000000pt" height="474.000000pt" viewBox="0 0 473.000000 474.000000"
 preserveAspectRatio="xMidYMid meet">

<g transform="translate(0.000000,474.000000) scale(0.100000,-0.100000)"
fill="#000000" stroke="none">
<path d="M130 2198 c0 -1219 0 -1214 59 -1399 98 -305 311 -546 606 -685 142
-67 261 -95 432 -101 210 -8 354 19 529 98 87 38 239 138 228 148 -5 5 -27 14
-49 21 -67 21 -215 96 -297 150 -43 28 -115 86 -160 129 l-83 78 -87 -5 c-248
-13 -461 139 -536 382 -14 45 -17 182 -19 1174 l-4 1122 -309 0 -310 0 0
-1112z"/>
<path d="M1222 2323 l3 -988 27 -96 c34 -126 78 -228 137 -325 312 -502 949
-686 1479 -427 165 80 341 233 441 381 96 142 170 338 191 504 6 51 10 433 10
1010 l0 928 -310 0 -309 0 -3 -942 -3 -943 -22 -66 c-83 -242 -326 -398 -565
-362 -100 15 -171 44 -246 100 -68 52 -126 124 -161 199 -50 106 -51 114 -51
1097 l0 917 -310 0 -311 0 3 -987z"/>
<path d="M3970 2192 c0 -1221 2 -1174 -58 -1286 -15 -28 -58 -83 -97 -122
-113 -114 -242 -163 -404 -151 l-79 5 -48 -50 c-110 -112 -279 -223 -439 -287
-53 -21 -98 -41 -101 -44 -8 -7 84 -71 166 -115 96 -52 226 -97 337 -118 125
-23 365 -15 483 16 193 51 360 144 501 277 148 142 244 289 304 468 61 181 58
116 62 1373 l4 1152 -316 0 -315 0 0 -1118z"/>
</g>
</svg>
