<?xml version="1.0" encoding="UTF-8"?>
<svg version="1.1" xmlns="http://www.w3.org/2000/svg" width="224" height="224">
<path d="M0 0 C73.92 0 147.84 0 224 0 C224 73.92 224 147.84 224 224 C150.08 224 76.16 224 0 224 C0 150.08 0 76.16 0 0 Z " fill="#044A90" transform="translate(0,0)"/>
<path d="M0 0 C13.35580549 10.38784872 22.41876224 25.20452214 25.84375 41.78125 C26.2815141 45.87484557 26.36858843 49.91634982 26.34375 54.03125 C26.33875488 55.12518066 26.33375977 56.21911133 26.32861328 57.34619141 C26.13602258 66.32888733 24.68456449 73.5814159 20.84375 81.78125 C20.39773437 82.76996094 19.95171875 83.75867188 19.4921875 84.77734375 C16.01733463 91.77558096 11.33480987 97.27182539 5.84375 102.78125 C5.15539062 103.4928125 4.46703125 104.204375 3.7578125 104.9375 C-9.21804845 117.47922434 -26.51296868 122.07975695 -44.10644531 122.09594727 C-62.87935033 121.77496174 -78.40776859 112.88060705 -91.15625 99.78125 C-91.77242187 99.1625 -92.38859375 98.54375 -93.0234375 97.90625 C-107.21168368 82.61529038 -109.05876392 63.71868907 -108.3828125 43.91894531 C-107.23085989 27.9653947 -97.06955105 12.72082909 -85.3671875 2.296875 C-78.47868731 -3.11941275 -71.30885098 -7.03923562 -63.15625 -10.21875 C-62.310625 -10.5590625 -61.465 -10.899375 -60.59375 -11.25 C-40.12105565 -18.15953434 -17.05999492 -11.9926697 0 0 Z " fill="#034990" transform="translate(153.15625,56.21875)"/>
<path d="M0 0 C73.92 0 147.84 0 224 0 C224 73.92 224 147.84 224 224 C150.08 224 76.16 224 0 224 C0 150.08 0 76.16 0 0 Z M30.40234375 37.2578125 C11.27394731 59.09217722 0.15574799 87.62758029 1.84033203 116.82470703 C4.20780884 149.07886362 17.56314301 176.2548129 42.08984375 197.7109375 C67.14113393 217.41571072 96.28758511 224.38810364 127.75 221.4375 C156.25268074 217.42622085 182.27494772 201.55641236 200 179 C206.70233134 169.59090826 211.89827043 159.8012212 216 149 C216.30421875 148.24976563 216.6084375 147.49953125 216.921875 146.7265625 C226.38515874 121.52332724 223.55250535 91.33109752 213 67 C207.0069475 54.16980309 198.82061306 43.15183104 189 33 C188.28714844 32.26136719 187.57429687 31.52273437 186.83984375 30.76171875 C175.38655541 19.7013391 160.95371593 12.13704124 146 7 C145.11054688 6.68546875 144.22109375 6.3709375 143.3046875 6.046875 C103.30337823 -7.07252547 58.8755664 7.63089363 30.40234375 37.2578125 Z " fill="#FDFDFE" transform="translate(0,0)"/>
<path d="M0 0 C21.728841 19.16692525 34.05142069 46.82820864 36.18457031 75.47900391 C37.83610804 105.62847866 27.45506511 133.4970421 7.625 156.125 C-12.98199607 178.30638456 -39.82954471 190.79756219 -70.12890625 192.22265625 C-100.75300993 193.14870158 -128.17376235 182.16014034 -150.6015625 161.32421875 C-163.0986358 149.2138627 -171.94906167 135.30548801 -178 119 C-178.37886353 117.98184204 -178.37886353 117.98184204 -178.76538086 116.94311523 C-180.75474902 111.33682592 -181.88726841 105.8245261 -182.6875 99.9375 C-182.8127002 99.0192041 -182.93790039 98.1009082 -183.06689453 97.15478516 C-186.8320009 67.70499397 -180.08583057 39.4606005 -162.09375 15.62109375 C-158.58133067 11.22401657 -154.91289854 7.04486813 -151 3 C-150.28714844 2.26136719 -149.57429688 1.52273437 -148.83984375 0.76171875 C-107.28728454 -39.36536673 -42.40394057 -35.78345437 0 0 Z M-153 11 C-170.3973186 31.18065714 -181.11327778 58.22666658 -180.21875 85.0625 C-179.32609188 97.04962332 -177.02754818 107.72706359 -173 119 C-172.63003906 120.05058594 -172.26007813 121.10117188 -171.87890625 122.18359375 C-162.49071233 146.64487409 -142.59311564 166.99151672 -118.95532227 177.98510742 C-92.01663014 189.86551067 -64.51126094 190.85006524 -37 181 C-35.95070312 180.63003906 -34.90140625 180.26007813 -33.8203125 179.87890625 C-9.55707299 170.57907042 10.62070332 150.85827741 21.8125 127.5625 C26.20096395 117.12044571 29.36670665 106.20515208 31 95 C31.20625 93.865625 31.4125 92.73125 31.625 91.5625 C34.58718965 63.42169832 24.73434164 35.68183074 7.22119141 13.87719727 C-12.16745551 -9.3684031 -39.49888292 -20.68865012 -69 -24 C-100.2401352 -25.97257829 -131.93002307 -11.81755393 -153 11 Z " fill="#0B4B92" transform="translate(186,30)"/>
<path d="M0 0 C1.04929688 0.36996094 2.09859375 0.73992188 3.1796875 1.12109375 C27.64342358 10.49777774 47.99347675 30.41109869 58.98510742 54.04467773 C70.8554936 80.96065627 71.84419813 108.44650725 62 136 C61.63003906 137.05058594 61.26007813 138.10117188 60.87890625 139.18359375 C51.55600007 163.47476451 31.73924869 183.92007143 8.25 194.875 C6.50753322 195.6016675 4.75760149 196.31074451 3 197 C2.15566406 197.35578125 1.31132812 197.7115625 0.44140625 198.078125 C-24.18732619 207.88570345 -52.70980408 207.21459389 -77.10009766 197.13183594 C-103.55029626 185.39693249 -123.98082121 165.86568474 -135 139 C-138.31854922 130.23130868 -140.64708954 121.28159503 -142 112 C-142.20625 110.865625 -142.4125 109.73125 -142.625 108.5625 C-145.58706596 80.42287336 -135.73536322 52.67693325 -118.21899414 30.875 C-100.12639421 9.18761627 -74.38272769 -3.47647582 -46.515625 -6.6875 C-30.27225902 -8.13135475 -15.23691929 -5.45538968 0 0 Z M-113.11328125 30.70703125 C-121.91992421 40.45650651 -127.97478148 51.95073655 -133 64 C-133.32613281 64.7734375 -133.65226563 65.546875 -133.98828125 66.34375 C-142.84841907 89.97078418 -140.41811508 118.1726025 -130.13623047 140.91015625 C-117.16449043 168.13224981 -95.42111679 186.78931794 -67.1875 196.8125 C-57.49609547 199.66419035 -48.34732301 200.33784469 -38.25 200.3125 C-36.34734375 200.33666992 -36.34734375 200.33666992 -34.40625 200.36132812 C-7.28204736 200.375167 16.80009204 188.72577436 36.1875 170.25 C57.38422925 148.16005364 64.48447453 122.24643748 64.2109375 92.18359375 C63.6584289 65.71433939 50.64675923 41.54624875 31.73828125 23.40234375 C-10.69788942 -13.82767759 -74.40820207 -10.11861248 -113.11328125 30.70703125 Z " fill="#EBEFF4" transform="translate(149,13)"/>
<path d="M0 0 C3.63 0 7.26 0 11 0 C11.01458252 1.09465576 11.02916504 2.18931152 11.04418945 3.31713867 C11.10228739 7.38956905 11.17951927 11.46145315 11.26245117 15.53344727 C11.29564654 17.29377355 11.32369524 19.05420488 11.34643555 20.81469727 C11.3800812 23.34957525 11.4324006 25.88349523 11.48828125 28.41796875 C11.49467117 29.20149216 11.5010611 29.98501556 11.50764465 30.7922821 C11.66342593 36.61919928 12.91116892 39.91116892 17 44 C21.56922148 44.77200992 25.05019219 44.59362988 29 42.125 C32.65253328 38.24418339 32.21286043 34.57813127 32.31640625 29.4921875 C32.33718735 28.65156769 32.35796844 27.81094788 32.37937927 26.94485474 C32.44485439 24.25498765 32.5037502 21.56502157 32.5625 18.875 C32.60568716 17.05337511 32.64930152 15.23176029 32.69335938 13.41015625 C32.80053368 8.94020606 32.90180685 4.47015614 33 0 C36.63 0 40.26 0 44 0 C44.07446471 5.42599527 44.12875037 10.8516894 44.16479492 16.27807617 C44.17982988 18.12187892 44.20026333 19.96564622 44.22631836 21.80932617 C44.26293561 24.4680255 44.27977943 27.12624971 44.29296875 29.78515625 C44.30845261 30.60210464 44.32393646 31.41905304 44.33988953 32.26075745 C44.34217126 40.11796935 41.89698989 45.64470846 36.61328125 51.4921875 C32.34428193 55.4820997 27.4394828 56.76083502 21.8125 57.3125 C13.73438668 56.65035956 8.60954251 53.26740899 3.41015625 47.1953125 C-0.15577861 41.64391252 -0.27528243 36.25177352 -0.1953125 29.8828125 C-0.1924826 29.02565643 -0.18965271 28.16850037 -0.18673706 27.28536987 C-0.17559999 24.56510068 -0.1505076 21.84516859 -0.125 19.125 C-0.11496182 17.27344228 -0.10583744 15.42187936 -0.09765625 13.5703125 C-0.07568188 9.0467464 -0.041197 4.52343023 0 0 Z " fill="#FBFCFD" transform="translate(90,92)"/>
<path d="M0 0 C-0.71840092 3.79911118 -1.72555405 7.34658827 -3 11 C-3.55042969 10.82984375 -4.10085937 10.6596875 -4.66796875 10.484375 C-30.58806935 2.92936893 -55.92679518 0.75924733 -81.64453125 10.23046875 C-84 11 -84 11 -87 11 C-90 4.76 -90 4.76 -90 1.92578125 C-89 0 -89 0 -86.18359375 -1.37890625 C-57.36740828 -10.48349874 -28.44099529 -10.75571272 0 0 Z " fill="#EC8B05" transform="translate(157,72)"/>
<path d="M0 0 C13.35580549 10.38784872 22.41876224 25.20452214 25.84375 41.78125 C26.2815141 45.87484557 26.36858843 49.91634982 26.34375 54.03125 C26.33875488 55.12518066 26.33375977 56.21911133 26.32861328 57.34619141 C26.13602258 66.32888733 24.68456449 73.5814159 20.84375 81.78125 C20.39773437 82.76996094 19.95171875 83.75867188 19.4921875 84.77734375 C16.01733463 91.77558096 11.33480987 97.27182539 5.84375 102.78125 C5.15539062 103.4928125 4.46703125 104.204375 3.7578125 104.9375 C-9.21804845 117.47922434 -26.51296868 122.07975695 -44.10644531 122.09594727 C-62.87935033 121.77496174 -78.40776859 112.88060705 -91.15625 99.78125 C-91.77242187 99.1625 -92.38859375 98.54375 -93.0234375 97.90625 C-107.21168368 82.61529038 -109.05876392 63.71868907 -108.3828125 43.91894531 C-107.23085989 27.9653947 -97.06955105 12.72082909 -85.3671875 2.296875 C-78.47868731 -3.11941275 -71.30885098 -7.03923562 -63.15625 -10.21875 C-62.310625 -10.5590625 -61.465 -10.899375 -60.59375 -11.25 C-40.12105565 -18.15953434 -17.05999492 -11.9926697 0 0 Z M-91.69140625 11.6328125 C-104.63812853 28.01614387 -107.9244877 45.3782234 -106.15625 65.78125 C-103.58861536 82.12412607 -93.93336667 96.5422598 -81.15625 106.78125 C-65.82826988 117.79905451 -48.13110337 121.99313891 -29.53125 119.09375 C-11.14468258 115.1654626 4.1204971 105.04497017 14.71875 89.46875 C23.85722071 74.20135301 26.19948971 56.26954248 23.16015625 38.8671875 C22.23768368 35.72082879 21.15212403 32.7864216 19.84375 29.78125 C19.43125 28.78222656 19.01875 27.78320312 18.59375 26.75390625 C11.25912978 10.5635656 -1.21420078 -0.47644739 -17.5078125 -7.22265625 C-18.38179688 -7.55136719 -19.25578125 -7.88007812 -20.15625 -8.21875 C-20.96835938 -8.53714844 -21.78046875 -8.85554688 -22.6171875 -9.18359375 C-47.37748908 -17.4497252 -74.88980784 -7.26574965 -91.69140625 11.6328125 Z " fill="#E0E6EF" transform="translate(153.15625,56.21875)"/>
<path d="M0 0 C3.63 0 7.26 0 11 0 C11.09934204 6.52868276 11.17169256 13.0569194 11.21972656 19.58618164 C11.239764 21.80435863 11.26700173 24.02248332 11.30175781 26.24047852 C11.35062253 29.44039872 11.37304812 32.63961674 11.390625 35.83984375 C11.41127014 36.82145981 11.43191528 37.80307587 11.45318604 38.81443787 C11.4555398 46.14002702 10.12307597 52.56714524 5.0703125 58.12109375 C-1.18733677 62.35568773 -6.24790507 64.66828405 -14 64 C-16.84199488 63.21337642 -19.2880141 62.21571782 -22 61 C-22.33 60.34 -22.66 59.68 -23 59 C-14.71499773 52.90131778 -14.71499773 52.90131778 -9.6875 51.8125 C-6.20061974 51.04420435 -4.48866926 50.48866926 -2 48 C-1.07076023 45.21228069 -0.85132662 43.41765752 -0.79467773 40.52856445 C-0.77473251 39.62785721 -0.75478729 38.72714996 -0.73423767 37.79914856 C-0.71752518 36.83031235 -0.70081268 35.86147614 -0.68359375 34.86328125 C-0.66281265 33.86870407 -0.64203156 32.87412689 -0.62062073 31.84941101 C-0.55520588 28.67051133 -0.4962776 25.49152866 -0.4375 22.3125 C-0.39430712 20.15819452 -0.35069258 18.00389746 -0.30664062 15.84960938 C-0.19953269 10.56649142 -0.09824234 5.28328995 0 0 Z " fill="#FAFBFC" transform="translate(144,92)"/>
<path d="M0 0 C3.63 0 7.26 0 11 0 C11.01458252 1.33699951 11.02916504 2.67399902 11.04418945 4.05151367 C11.10222124 9.01841799 11.17945435 13.98487129 11.26245117 18.95141602 C11.29567746 21.09977898 11.32371653 23.24822875 11.34643555 25.39672852 C11.38002331 28.48751776 11.43234221 31.57751312 11.48828125 34.66796875 C11.49467117 35.62648239 11.5010611 36.58499603 11.50764465 37.57255554 C11.61591483 42.4984217 11.74874849 46.0251299 15 50 C17.36821657 51.6070041 19.45320394 52.11330099 22.25 52.8125 C26.70528745 54.22334103 30.16132184 56.38770473 34 59 C30.39874693 62.86605109 26.86527009 63.82728981 21.625 64.3125 C14.34022679 63.68450231 9.19831492 61.07742388 4 56 C0.79732248 51.47207662 -0.12826162 47.71332169 -0.11352539 42.23144531 C-0.11344986 41.29077209 -0.11337433 40.35009888 -0.11329651 39.38092041 C-0.10813522 38.37349792 -0.10297394 37.36607544 -0.09765625 36.328125 C-0.0962413 35.29057068 -0.09482635 34.25301636 -0.09336853 33.184021 C-0.08777447 29.87265124 -0.07522303 26.56134929 -0.0625 23.25 C-0.05748423 21.00390723 -0.05292146 18.75781339 -0.04882812 16.51171875 C-0.03780698 11.00778641 -0.02054639 5.5039047 0 0 Z " fill="#F9FBFC" transform="translate(69,92)"/>
<path d="M0 0 C4.49316995 4.09671378 7.97813973 8.71434062 11 14 C11 14.66 11 15.32 11 16 C8 15 8 15 6.8125 12.9375 C6.544375 12.298125 6.27625 11.65875 6 11 C5.31506627 13.85778033 5.31506627 13.85778033 5 17 C5.66 17.99 6.32 18.98 7 20 C6.625 22.1875 6.625 22.1875 6 24 C2 24 -2 24 -6 24 C-6.37125 23.154375 -6.7425 22.30875 -7.125 21.4375 C-8.70969434 18.53222705 -10.03279502 16.78876854 -12.25 14.4375 C-14.99189259 11.34861852 -14.99189259 11.34861852 -15.0625 8.3125 C-13.94218291 5.8741628 -12.82518894 3.97120406 -11 2 C-10.34 2 -9.68 2 -9 2 C-9.69941596 5.14737182 -10.76078698 8.02588876 -12 11 C-11.113125 10.195625 -10.22625 9.39125 -9.3125 8.5625 C-6.61712968 6.2960841 -4.57936522 5.31582634 -1 5 C-1 6.98 -1 8.96 -1 11 C0.32 11 1.64 11 3 11 C2.42415568 8.61435923 1.77772405 6.33317216 1 4 C0.01 3.67 -0.98 3.34 -2 3 C-1.34 2.01 -0.68 1.02 0 0 Z " fill="#EDF1F6" transform="translate(43,148)"/>
<path d="M0 0 C1.65 0 3.3 0 5 0 C4.68383092 6.16529701 1.50784939 10.17268433 -2 15 C-1.236875 14.236875 -0.47375 13.47375 0.3125 12.6875 C2.20833333 10.79166667 4.10416667 8.89583333 6 7 C6.33 7.99 6.66 8.98 7 10 C7.66 10.33 8.32 10.66 9 11 C8.67 9.68 8.34 8.36 8 7 C9.32 6.34 10.64 5.68 12 5 C11.68817931 6.41681634 11.37551263 7.83344651 11.0625 9.25 C10.80146484 10.43335938 10.80146484 10.43335938 10.53515625 11.640625 C10.052444 13.76878703 9.53836822 15.88532842 9 18 C8.01 18 7.02 18 6 18 C6.99 18.99 7.98 19.98 9 21 C8.67 21.99 8.34 22.98 8 24 C0.73840203 22.66870704 -6.58920087 20.7673852 -13 17 C-13.84375 14.8359375 -13.84375 14.8359375 -14 13 C-13.34 13 -12.68 13 -12 13 C-11.71125 12.21625 -11.4225 11.4325 -11.125 10.625 C-10 8 -10 8 -8 6 C-7.67 6.33 -7.34 6.66 -7 7 C-3.54178598 7.25003964 -3.54178598 7.25003964 0 7 C2.1385485 4.8614515 2.42655063 3.86724686 3 1 C2.01 0.67 1.02 0.34 0 0 Z " fill="#084990" transform="translate(81,187)"/>
<path d="M0 0 C0.99 0.33 1.98 0.66 3 1 C2.67 2.65 2.34 4.3 2 6 C2.99 6.33 3.98 6.66 5 7 C5.99 8.485 5.99 8.485 7 10 C9.05003955 11.19232613 9.05003955 11.19232613 11 12 C10 15 10 15 8 17 C8 17.99 8 18.98 8 20 C7.01 19.67 6.02 19.34 5 19 C4.67 18.34 4.34 17.68 4 17 C3.67386719 17.49371094 3.34773438 17.98742187 3.01171875 18.49609375 C2.57472656 19.13675781 2.13773438 19.77742188 1.6875 20.4375 C1.25824219 21.07558594 0.82898438 21.71367187 0.38671875 22.37109375 C-1 24 -1 24 -4 25 C-2.30506881 21.4682364 -0.2717622 18.26748441 1.87890625 15 C3.00433123 12.99227321 3.55350843 11.24750812 4 9 C3.01 9.495 3.01 9.495 2 10 C1.65846063 11.66500443 1.32550502 13.33178677 1 15 C-1 17 -1 17 -4.5 17.125 C-5.655 17.08375 -6.81 17.0425 -8 17 C-8.66 17 -9.32 17 -10 17 C-10.7115625 18.2375 -10.7115625 18.2375 -11.4375 19.5 C-12.2109375 20.7375 -12.2109375 20.7375 -13 22 C-13.99 22 -14.98 22 -16 22 C-14.34216909 18.08149058 -11.89061644 15.09708904 -9 12 C-6.6875 11.125 -6.6875 11.125 -5 11 C-6.65 10.67 -8.3 10.34 -10 10 C-10 10.66 -10 11.32 -10 12 C-10.66 12 -11.32 12 -12 12 C-12.33 10.35 -12.66 8.7 -13 7 C-12.484375 7.20625 -11.96875 7.4125 -11.4375 7.625 C-7.77501992 8.18845847 -5.38529432 7.44188462 -2 6 C-0.46853622 2.99405579 -0.46853622 2.99405579 0 0 Z " fill="#E3E9F1" transform="translate(82,178)"/>
<path d="M0 0 C3.14737182 0.69941596 6.02588876 1.76078698 9 3 C9.66 2.34 10.32 1.68 11 1 C13.125 1.375 13.125 1.375 15 2 C13.9171875 2.86625 13.9171875 2.86625 12.8125 3.75 C9.21621067 7.26455548 7.84485587 11.82807226 6.11328125 16.453125 C5 19 5 19 3 20 C3 18.68 3 17.36 3 16 C1.35 15.67 -0.3 15.34 -2 15 C-1.67 14.01 -1.34 13.02 -1 12 C-2.32 11.01 -3.64 10.02 -5 9 C-4.01 8.67 -3.02 8.34 -2 8 C-1.34 8.33 -0.68 8.66 0 9 C0 8.34 0 7.68 0 7 C-0.9590625 6.566875 -0.9590625 6.566875 -1.9375 6.125 C-4 5 -4 5 -5 3 C-2.525 3.495 -2.525 3.495 0 4 C0 3.01 0 2.02 0 1 C0 0.67 0 0.34 0 0 Z " fill="#A9BBD4" transform="translate(174,149)"/>
<path d="M0 0 C1.65 0.33 3.3 0.66 5 1 C5 3.31 5 5.62 5 8 C5.515625 7.67 6.03125 7.34 6.5625 7 C9.78026512 5.67989123 12.5570528 5.86757895 16 6 C16 6.99 16 7.98 16 9 C14.98679688 9.04253906 14.98679688 9.04253906 13.953125 9.0859375 C11.01769129 9.39984226 8.70806299 9.80401003 6 11 C4.42869314 13.46547595 3.65205268 15.78764765 2.7890625 18.57421875 C1.80967269 21.58511513 0.65679647 23.25647732 -2 25 C-4.125 24.58203125 -4.125 24.58203125 -6 24 C-5.36771484 23.29423828 -5.36771484 23.29423828 -4.72265625 22.57421875 C-4.17480469 21.95160156 -3.62695312 21.32898438 -3.0625 20.6875 C-2.51722656 20.07261719 -1.97195312 19.45773438 -1.41015625 18.82421875 C0.20081559 16.94758042 0.20081559 16.94758042 1 14 C-1.31 15.32 -3.62 16.64 -6 18 C-6.99 17.01 -7.98 16.02 -9 15 C-5.7 13.35 -2.4 11.7 1 10 C1.08004482 6.4780279 1.04005702 3.38018531 0 0 Z " fill="#EDF1F6" transform="translate(134,180)"/>
<path d="M0 0 C4.95 0 9.9 0 15 0 C14 4 14 4 10.9375 6.25 C9.968125 6.8275 8.99875 7.405 8 8 C8.99 8.5775 9.98 9.155 11 9.75 C11.99 10.4925 12.98 11.235 14 12 C14 13.32 14 14.64 14 16 C9.38 16 4.76 16 0 16 C0 15.01 0 14.02 0 13 C3.465 12.505 3.465 12.505 7 12 C5.35 11.01 3.7 10.02 2 9 C3 6 3 6 6 4 C3.03 3.505 3.03 3.505 0 3 C0 2.01 0 1.02 0 0 Z " fill="#EDF2F7" transform="translate(20,96)"/>
<path d="M0 0 C1.890625 0.18359375 1.890625 0.18359375 4 1 C5.046875 3.28515625 5.046875 3.28515625 5.75 6.0625 C5.99234375 6.98160156 6.2346875 7.90070312 6.484375 8.84765625 C6.65453125 9.55792969 6.8246875 10.26820312 7 11 C7.99 8.69 8.98 6.38 10 4 C10.99 4.33 11.98 4.66 13 5 C11.45730076 9.72065967 9.92205381 14.41664092 8 19 C6.109375 18.81640625 6.109375 18.81640625 4 18 C2.953125 15.71484375 2.953125 15.71484375 2.25 12.9375 C2.00765625 12.01839844 1.7653125 11.09929688 1.515625 10.15234375 C1.34546875 9.44207031 1.1753125 8.73179688 1 8 C0.01 10.31 -0.98 12.62 -2 15 C-2.99 14.67 -3.98 14.34 -5 14 C-3.45730076 9.27934033 -1.92205381 4.58335908 0 0 Z " fill="#E7EDF3" transform="translate(138,22)"/>
<path d="M0 0 C3.16115776 1.36983503 3.9927092 1.9890638 6 5 C6.25 7.5625 6.25 7.5625 6 10 C4 12 4 12 1.5 12.375 C-1.16470196 12.73647686 -1.16470196 12.73647686 -2.3125 15.0625 C-2.539375 15.701875 -2.76625 16.34125 -3 17 C-3.66 17 -4.32 17 -5 17 C-6 14 -6 14 -4.5625 10.8125 C-4.046875 9.884375 -3.53125 8.95625 -3 8 C-3.598125 8.33 -4.19625 8.66 -4.8125 9 C-7 10 -7 10 -10 10 C-10 9.01 -10 8.02 -10 7 C-7.8125 5.17578125 -7.8125 5.17578125 -5 3.3125 C-3.6078125 2.37857422 -3.6078125 2.37857422 -2.1875 1.42578125 C-1.1046875 0.72001953 -1.1046875 0.72001953 0 0 Z " fill="#E9EEF4" transform="translate(183,54)"/>
<path d="M0 0 C2.76727664 2.44797549 4.68877081 5.01713212 6.625 8.125 C16.94095622 23.75290382 31.63585761 30.94153835 49 36 C49 36.33 49 36.66 49 37 C37.92066324 38.28829497 26.48493719 31.56743726 18 25 C10.76977449 18.79352323 3.83784226 11.87080207 0 3 C0 2.01 0 1.02 0 0 Z " fill="#E6EBF2" transform="translate(52,139)"/>
<path d="M0 0 C4.2829452 0.5479083 6.85135641 2.02432804 10.3125 4.5625 C11.19550781 5.20316406 12.07851562 5.84382813 12.98828125 6.50390625 C13.65214844 6.99761719 14.31601563 7.49132813 15 8 C12.79662631 9.13450305 10.73332991 10.08889003 8.375 10.875 C5.60080006 12.18909471 5.03631329 13.17369103 4 16 C3.34 16 2.68 16 2 16 C1.46530198 14.27507022 0.94780825 12.544802 0.4375 10.8125 C0.14746094 9.84957031 -0.14257812 8.88664062 -0.44140625 7.89453125 C-1.02461026 4.87247412 -0.81178385 2.94070045 0 0 Z " fill="#EAEFF5" transform="translate(61,34)"/>
<path d="M0 0 C0.99 0.33 1.98 0.66 3 1 C2.01 3.97 1.02 6.94 0 10 C1.423125 10.433125 1.423125 10.433125 2.875 10.875 C6 12 6 12 8 14 C3.94568308 15.15837626 1.78187881 14.83691257 -2 13 C-1.67 14.32 -1.34 15.64 -1 17 C-2.32 17.33 -3.64 17.66 -5 18 C-5.70088156 16.25531628 -6.38524009 14.50398839 -7.0625 12.75 C-7.44535156 11.77546875 -7.82820313 10.8009375 -8.22265625 9.796875 C-9.01113787 6.95992605 -9.02437812 5.70590448 -8 3 C-7.34 3 -6.68 3 -6 3 C-5.67 4.65 -5.34 6.3 -5 8 C-4.34 8 -3.68 8 -3 8 C-2.814375 6.8553125 -2.814375 6.8553125 -2.625 5.6875 C-2 3 -2 3 0 0 Z " fill="#E1E8F0" transform="translate(82,23)"/>
<path d="M0 0 C-1 3 -1 3 -3 4 C-3.33 4.99 -3.66 5.98 -4 7 C-3.29875 6.505 -2.5975 6.01 -1.875 5.5 C1.42103834 3.78032782 3.3336437 3.51115249 7 4 C9 7 9 7 8.875 9.5 C7.80677229 12.55207917 6.86194702 13.52814153 4 15 C1.75 14.6875 1.75 14.6875 0 14 C1 12 1 12 4 11 C4.73323796 8.98491642 4.73323796 8.98491642 5 7 C4.2575 7.474375 3.515 7.94875 2.75 8.4375 C0.35963169 9.79566382 -1.28740771 10.72874077 -4 11 C-4.99 10.34 -5.98 9.68 -7 9 C-7.407974 5.80420369 -7.56681719 3.85022579 -5.75 1.125 C-4 0 -4 0 0 0 Z " fill="#E4EAF1" transform="translate(36,64)"/>
<path d="M0 0 C0.99 0 1.98 0 3 0 C2.67 3.96 2.34 7.92 2 12 C3.32 12 4.64 12 6 12 C6.99 8.7 7.98 5.4 9 2 C9.99 2 10.98 2 12 2 C11.91231752 3.5843317 11.80412671 5.16753567 11.6875 6.75 C11.62949219 7.63171875 11.57148438 8.5134375 11.51171875 9.421875 C10.92249139 12.3905014 10.11866442 13.85170391 8 16 C4.57990979 16.42751128 2.16867275 16.60318593 -0.9375 15 C-2.64487 11.78612705 -2.41748206 8.51779966 -2 5 C-1 2 -1 2 0 0 Z " fill="#EAEEF4" transform="translate(122,19)"/>
<path d="M0 0 C0.99 0 1.98 0 3 0 C2.67 2.31 2.34 4.62 2 7 C2.66 7.33 3.32 7.66 4 8 C4.66 6.02 5.32 4.04 6 2 C6.66 2.33 7.32 2.66 8 3 C7.67 4.98 7.34 6.96 7 9 C7.99 9.33 8.98 9.66 10 10 C10.66 8.02 11.32 6.04 12 4 C12.66 4 13.32 4 14 4 C13.34 6.97 12.68 9.94 12 13 C7.53672476 14.11581881 6.39238394 13.68986512 2.25 12.0625 C1.26515625 11.68222656 0.2803125 11.30195312 -0.734375 10.91015625 C-1.48203125 10.60980469 -2.2296875 10.30945313 -3 10 C-2.69201674 8.51988629 -2.378482 7.04092675 -2.0625 5.5625 C-1.88847656 4.73878906 -1.71445312 3.91507812 -1.53515625 3.06640625 C-1 1 -1 1 0 0 Z " fill="#EAEFF4" transform="translate(25,78)"/>
<path d="M0 0 C1.8871875 0.0309375 1.8871875 0.0309375 3.8125 0.0625 C3.8125 0.7225 3.8125 1.3825 3.8125 2.0625 C1.5025 2.3925 -0.8075 2.7225 -3.1875 3.0625 C-3.1875 4.0525 -3.1875 5.0425 -3.1875 6.0625 C-0.8775 6.0625 1.4325 6.0625 3.8125 6.0625 C3.8125 6.7225 3.8125 7.3825 3.8125 8.0625 C1.8325 8.3925 -0.1475 8.7225 -2.1875 9.0625 C-1.8575 10.0525 -1.5275 11.0425 -1.1875 12.0625 C0.7925 12.0625 2.7725 12.0625 4.8125 12.0625 C4.4825 13.0525 4.1525 14.0425 3.8125 15.0625 C-0.6425 15.5575 -0.6425 15.5575 -5.1875 16.0625 C-5.8475 11.1125 -6.5075 6.1625 -7.1875 1.0625 C-4.43671116 0.14557039 -2.82801087 -0.04636083 0 0 Z " fill="#E8EDF3" transform="translate(97.1875,19.9375)"/>
<path d="M0 0 C3.29714793 0.32971479 4.6226839 0.6226839 7 3 C6.625 6.625 6.625 6.625 6 10 C5.34 10 4.68 10 4 10 C3.87625 9.030625 3.7525 8.06125 3.625 7.0625 C3.41875 6.051875 3.2125 5.04125 3 4 C2.34 3.67 1.68 3.34 1 3 C1.061875 4.258125 1.12375 5.51625 1.1875 6.8125 C1.18060372 10.70200387 1.18060372 10.70200387 -0.25 13.0625 C-2 14 -2 14 -4 13.875 C-6.33251907 12.85452291 -7.514966 12.0790476 -9 10 C-9.375 7.4375 -9.375 7.4375 -9 5 C-8.01 4.34 -7.02 3.68 -6 3 C-5.02391783 5.92824652 -4.91773332 7.95613276 -5 11 C-4.34 10.67 -3.68 10.34 -3 10 C-2.74280183 7.97456444 -2.49157878 5.94649776 -2.34375 3.91015625 C-2 2 -2 2 0 0 Z " fill="#E5EBF2" transform="translate(190,68)"/>
<path d="M0 0 C5 5.35714286 5 5.35714286 5 9 C3.0625 8.1875 3.0625 8.1875 1 7 C0.67 6.01 0.34 5.02 0 4 C-0.99 4.495 -0.99 4.495 -2 5 C-1.42415568 7.38564077 -0.77772405 9.66682784 0 12 C-0.5775 11.690625 -1.155 11.38125 -1.75 11.0625 C-3.84294184 10.07416636 -5.74535275 9.4831387 -8 9 C-6.68 11.31 -5.36 13.62 -4 16 C-7 16 -7 16 -9.6875 13.5 C-10.450625 12.675 -11.21375 11.85 -12 11 C-10.5611898 7.612801 -8.77880501 5.6405896 -6 3.25 C-5.29875 2.63640625 -4.5975 2.0228125 -3.875 1.390625 C-2 0 -2 0 0 0 Z " fill="#EDF2F6" transform="translate(176,43)"/>
<path d="M0 0 C9.395797 8.29040912 15.19359246 21.11916881 16.21044922 33.57861328 C16.41167593 39.06379321 16.26806301 44.51960061 16 50 C15.67 50 15.34 50 15 50 C14.85304687 48.27716797 14.85304687 48.27716797 14.703125 46.51953125 C13.34254556 31.87906362 10.64510716 16.77367528 1.31640625 4.84765625 C0 3 0 3 0 0 Z " fill="#E4EAF1" transform="translate(163,67)"/>
<path d="M0 0 C-0.71283682 5.12914773 -2.06756436 9.93375614 -3.5625 14.875 C-3.79646484 15.65875 -4.03042969 16.4425 -4.27148438 17.25 C-4.84443538 19.16763195 -5.42177191 21.08395266 -6 23 C-9 23 -9 23 -10.6875 21.5 C-11.120625 21.005 -11.55375 20.51 -12 20 C-11.67 19.34 -11.34 18.68 -11 18 C-9.515 18.99 -9.515 18.99 -8 20 C-7.9175 19.071875 -7.835 18.14375 -7.75 17.1875 C-7.01757075 11.87465502 -4.93313849 6.97221202 -3 2 C-4.65 2.33 -6.3 2.66 -8 3 C-8 2.01 -8 1.02 -8 0 C-4.94736336 -0.98120464 -3.05263664 -0.98120464 0 0 Z " fill="#DEE5EE" transform="translate(98,185)"/>
<path d="M0 0 C0.99 0 1.98 0 3 0 C2.68950274 1.43793392 2.3765224 2.8753318 2.0625 4.3125 C1.88847656 5.11300781 1.71445313 5.91351563 1.53515625 6.73828125 C1 9 1 9 0 12 C0.61488281 11.55527344 1.22976562 11.11054687 1.86328125 10.65234375 C2.67152344 10.08644531 3.47976562 9.52054688 4.3125 8.9375 C5.11300781 8.36902344 5.91351563 7.80054688 6.73828125 7.21484375 C7.48464844 6.81394531 8.23101562 6.41304687 9 6 C9.99 6.33 10.98 6.66 12 7 C8.33282641 11.00055301 4.93253549 13.66825595 0 16 C-2.21484375 15.6015625 -2.21484375 15.6015625 -4 15 C-3.52396226 12.87429688 -3.04407402 10.74945573 -2.5625 8.625 C-2.29566406 7.44164062 -2.02882812 6.25828125 -1.75390625 5.0390625 C-1 2 -1 2 0 0 Z " fill="#EDF1F6" transform="translate(160,33)"/>
<path d="M0 0 C-0.33 0.99 -0.66 1.98 -1 3 C-8.07692949 6.03296978 -15.55158747 6.16267867 -23.125 6.125 C-23.91003906 6.12886719 -24.69507812 6.13273438 -25.50390625 6.13671875 C-29.46883962 6.13003252 -33.12967261 5.97923946 -37 5 C-33.17969758 2.44648194 -29.33812703 2.85357017 -24.9375 3 C-16.38015308 3.15264654 -8.17672782 0 0 0 Z " fill="#D6DFEA" transform="translate(134,172)"/>
<path d="M0 0 C1.67542976 0.28604898 3.34385343 0.61781233 5 1 C4.67 1.99 4.34 2.98 4 4 C5.98 4.66 7.96 5.32 10 6 C10 6.99 10 7.98 10 9 C9.401875 9.28875 8.80375 9.5775 8.1875 9.875 C5.80672208 11.04742026 5.80672208 11.04742026 3 13 C2.13058506 11.76055724 1.27994543 10.50792941 0.4375 9.25 C-0.03816406 8.55390625 -0.51382813 7.8578125 -1.00390625 7.140625 C-2 5 -2 5 -1.71484375 2.796875 C-1 1 -1 1 0 0 Z " fill="#E4EAF1" transform="translate(35,160)"/>
<path d="M0 0 C3.14737182 0.69941596 6.02588876 1.76078698 9 3 C9.66 2.34 10.32 1.68 11 1 C13.125 1.375 13.125 1.375 15 2 C14.278125 2.5775 13.55625 3.155 12.8125 3.75 C9.21621067 7.26455548 7.84485587 11.82807226 6.11328125 16.453125 C5 19 5 19 3 20 C3 18.68 3 17.36 3 16 C1.35 15.67 -0.3 15.34 -2 15 C-2 14.34 -2 13.68 -2 13 C0.38564077 13.57584432 2.66682784 14.22227595 5 15 C5 13.02 5 11.04 5 9 C5.66 9 6.32 9 7 9 C7 8.01 7 7.02 7 6 C6.01 5.67 5.02 5.34 4 5 C2.61423077 3.37667033 1.27358732 1.71275535 0 0 Z " fill="#EAEFF5" transform="translate(174,149)"/>
<path d="M0 0 C0.99 0 1.98 0 3 0 C4.13764351 4.26616316 5 7.56486311 5 12 C4.01 12 3.02 12 2 12 C2 10.68 2 9.36 2 8 C0.7315625 8.495 0.7315625 8.495 -0.5625 9 C-4.20989216 10.06105954 -7.22274664 10.15109013 -11 10 C-11 9.01 -11 8.02 -11 7 C-7.04 6.34 -3.08 5.68 1 5 C0.67 3.35 0.34 1.7 0 0 Z " fill="#DDE5EE" transform="translate(199,87)"/>
<path d="M0 0 C0.99 0.33 1.98 0.66 3 1 C2.67 2.65 2.34 4.3 2 6 C4.31 7.98 6.62 9.96 9 12 C8.67 12.99 8.34 13.98 8 15 C5.39533141 13.88371346 3.9972038 12.99673777 2.125 10.8125 C0.05079097 8.61174675 0.05079097 8.61174675 -3.25 9.25 C-4.1575 9.4975 -5.065 9.745 -6 10 C-6 6.41087588 -5.33563446 5.89142971 -3 3.3125 C-2.443125 2.68988281 -1.88625 2.06726562 -1.3125 1.42578125 C-0.879375 0.95527344 -0.44625 0.48476563 0 0 Z " fill="#EDF1F6" transform="translate(41,51)"/>
<path d="M0 0 C0.33 0.99 0.66 1.98 1 3 C0.67 3.66 0.34 4.32 0 5 C0.61875 5.28875 1.2375 5.5775 1.875 5.875 C4 7 4 7 6 9 C6 9.99 6 10.98 6 12 C3.5 13.6875 3.5 13.6875 1 15 C1.33 13.02 1.66 11.04 2 9 C1.01 8.34 0.02 7.68 -1 7 C-1.66 8.98 -2.32 10.96 -3 13 C-3.66 13 -4.32 13 -5 13 C-4.34 10.36 -3.68 7.72 -3 5 C-3.66 5 -4.32 5 -5 5 C-5 6.32 -5 7.64 -5 9 C-5.66 9 -6.32 9 -7 9 C-6.74438677 6.6568787 -6.40729228 4.32156597 -6 2 C-5.34 1.67 -4.68 1.34 -4 1 C-4 1.66 -4 2.32 -4 3 C-2.68 2.01 -1.36 1.02 0 0 Z " fill="#E4EAF1" transform="translate(189,157)"/>
<path d="M0 0 C0 0.99 0 1.98 0 3 C-2.5 5.1875 -2.5 5.1875 -5 7 C-4.175 7.433125 -3.35 7.86625 -2.5 8.3125 C-1.2625 9.1478125 -1.2625 9.1478125 0 10 C0 10.99 0 11.98 0 13 C-2.9719385 11.87548273 -5.33440687 10.77706209 -8 9 C-10.32387947 8.60612212 -12.65793749 8.26513915 -15 8 C-15 7.01 -15 6.02 -15 5 C-13.453125 4.87625 -13.453125 4.87625 -11.875 4.75 C-7.51782409 3.90667563 -4.11083884 0 0 0 Z " fill="#EBF0F5" transform="translate(205,101)"/>
<path d="M0 0 C0.33 0 0.66 0 1 0 C2.40329206 12.90750818 3.1055659 25.19828468 -4.671875 36.41015625 C-5.11015625 36.93480469 -5.5484375 37.45945313 -6 38 C-7 36 -7 36 -6.0390625 32.91796875 C-5.33910156 31.07138672 -5.33910156 31.07138672 -4.625 29.1875 C-1.90924264 21.98846723 -0.82686442 15.80244672 -0.4375 8.1875 C-0.37272461 7.00510742 -0.37272461 7.00510742 -0.30664062 5.79882812 C-0.20121679 3.86605785 -0.10016906 1.93304974 0 0 Z " fill="#DFE6EF" transform="translate(177,104)"/>
<path d="M0 0 C4.95 0 9.9 0 15 0 C14 4 14 4 11.0625 6.1875 C9.40121639 7.17070867 7.72662966 8.13668517 6 9 C6 7.35 6 5.7 6 4 C3.03 3.505 3.03 3.505 0 3 C0 2.01 0 1.02 0 0 Z " fill="#E6EBF2" transform="translate(20,96)"/>
<path d="M0 0 C3.7952131 1.49097658 5.61042731 3.75700849 8 7 C10.96175123 6.38722388 12.38058783 5.74627478 15 4 C15 7 15 7 13.46875 8.60546875 C11.64583333 10.0703125 9.82291667 11.53515625 8 13 C5.03 9.7 2.06 6.4 -1 3 C-0.67 2.01 -0.34 1.02 0 0 Z " fill="#EBF0F5" transform="translate(46,46)"/>
<path d="M0 0 C0.33 0 0.66 0 1 0 C1.01417969 1.10214844 1.02835938 2.20429687 1.04296875 3.33984375 C1.34405409 14.59618766 3.35200911 24.36563542 7 35 C6.34 35.66 5.68 36.32 5 37 C-0.59515128 23.82765124 -1.32750152 14.1736316 0 0 Z " fill="#CED9E6" transform="translate(46,104)"/>
<path d="M0 0 C0.99 0 1.98 0 3 0 C3.125 2.375 3.125 2.375 3 5 C1 7 1 7 -1.5 7.375 C-4.16470196 7.73647686 -4.16470196 7.73647686 -5.3125 10.0625 C-5.539375 10.701875 -5.76625 11.34125 -6 12 C-6.66 12 -7.32 12 -8 12 C-9 9 -9 9 -8.22265625 7.17578125 C-7.1484375 5.45052083 -6.07421875 3.72526042 -5 2 C-2.525 2.99 -2.525 2.99 0 4 C0 2.68 0 1.36 0 0 Z " fill="#EBEFF5" transform="translate(186,59)"/>
<path d="M0 0 C1.65 0.99 3.3 1.98 5 3 C4.745504 4.48206495 4.47088238 5.96068615 4.1875 7.4375 C4.03667969 8.26121094 3.88585937 9.08492187 3.73046875 9.93359375 C3.48941406 10.61550781 3.24835938 11.29742187 3 12 C2.01 12.33 1.02 12.66 0 13 C-1.98384711 9.03230578 -1.32630565 4.14470514 0 0 Z " fill="#ACBFD7" transform="translate(63,37)"/>
<path d="M0 0 C0.99 0 1.98 0 3 0 C2.34215037 3.29680965 1.10579427 5.84117922 -0.5625 8.75 C-1.01753906 9.54921875 -1.47257813 10.3484375 -1.94140625 11.171875 C-2.29074219 11.77515625 -2.64007813 12.3784375 -3 13 C-4.32 13 -5.64 13 -7 13 C-6.02325896 11.01963514 -5.04354018 9.04073867 -4.0625 7.0625 C-3.51722656 5.96035156 -2.97195312 4.85820313 -2.41015625 3.72265625 C-1 1 -1 1 0 0 Z " fill="#E4EAF2" transform="translate(155,30)"/>
<path d="M0 0 C0.66 0 1.32 0 2 0 C2.12375 0.969375 2.2475 1.93875 2.375 2.9375 C2.684375 4.4534375 2.684375 4.4534375 3 6 C3.66 6.33 4.32 6.66 5 7 C5.73075648 9.3140622 6.40138258 11.64828869 7 14 C5.68 14.33 4.36 14.66 3 15 C2.29911844 13.25531628 1.61475991 11.50398839 0.9375 9.75 C0.55464844 8.77546875 0.17179687 7.8009375 -0.22265625 6.796875 C-1.01113787 3.95992605 -1.02437812 2.70590448 0 0 Z " fill="#ECF0F5" transform="translate(74,26)"/>
<path d="M0 0 C0 0.99 0 1.98 0 3 C-5.10334017 4.905247 -9.46342706 6.42589023 -15 6 C-15 5.01 -15 4.02 -15 3 C-13.0636296 2.49564306 -11.12585854 1.99666126 -9.1875 1.5 C-8.10855469 1.2215625 -7.02960938 0.943125 -5.91796875 0.65625 C-3 0 -3 0 0 0 Z " fill="#E7ECF3" transform="translate(201,81)"/>
<path d="M0 0 C2.20703125 0.28515625 2.20703125 0.28515625 5.89453125 1.16015625 C5.89453125 2.49348958 5.89453125 3.82682292 5.89453125 5.16015625 C2.89453125 5.16015625 -0.10546875 5.16015625 -3.10546875 5.16015625 C-3.57984375 5.98515625 -4.05421875 6.81015625 -4.54296875 7.66015625 C-5.05859375 8.48515625 -5.57421875 9.31015625 -6.10546875 10.16015625 C-7.09546875 10.16015625 -8.08546875 10.16015625 -9.10546875 10.16015625 C-7.36613959 6.04901459 -4.89881355 0.37263702 0 0 Z " fill="#B5C6DB" transform="translate(75.10546875,189.83984375)"/>
<path d="M0 0 C4.49316995 4.09671378 7.97813973 8.71434062 11 14 C11 14.66 11 15.32 11 16 C7.4797275 14.82657583 7.0617354 13.96889897 5 11 C4.278125 10.13375 3.55625 9.2675 2.8125 8.375 C1 6 1 6 1 4 C0.01 3.67 -0.98 3.34 -2 3 C-1.34 2.01 -0.68 1.02 0 0 Z " fill="#D5DEE9" transform="translate(43,148)"/>
<path d="M0 0 C4.9053984 -0.28855285 8.1554435 -0.26204794 12 3 C12 4.32 12 5.64 12 7 C7.39104317 5.68315519 3.85859765 3.84801255 0 1 C0 0.67 0 0.34 0 0 Z " fill="#E0E6EF" transform="translate(140,193)"/>
<path d="M0 0 C2.5 1.8125 2.5 1.8125 5 4 C5 4.99 5 5.98 5 7 C4.01 7.33 3.02 7.66 2 8 C2 7.34 2 6.68 2 6 C0.329375 5.5978125 0.329375 5.5978125 -1.375 5.1875 C-5 4 -5 4 -7 1 C-5.824375 1.309375 -5.824375 1.309375 -4.625 1.625 C-3.75875 1.74875 -2.8925 1.8725 -2 2 C-1.34 1.34 -0.68 0.68 0 0 Z " fill="#B4C4DA" transform="translate(176,151)"/>
<path d="M0 0 C-4.11864955 3.72007056 -10.20736961 8 -16 8 C-15 5 -15 5 -12.3828125 3.359375 C-11.30773437 2.82828125 -10.23265625 2.2971875 -9.125 1.75 C-8.05507812 1.20859375 -6.98515625 0.6671875 -5.8828125 0.109375 C-3 -1 -3 -1 0 0 Z " fill="#DEE5EE" transform="translate(150,166)"/>
<path d="M0 0 C4.00055301 3.66717359 6.66825595 7.06746451 9 12 C8.6015625 14.21484375 8.6015625 14.21484375 8 16 C6.84800669 14.08702939 5.70362312 12.16947471 4.5625 10.25 C3.92441406 9.18265625 3.28632813 8.1153125 2.62890625 7.015625 C1.30526901 4.56515029 0.46702949 2.71008663 0 0 Z " fill="#ECF0F6" transform="translate(163,67)"/>
<path d="M0 0 C2.0625 0.4375 2.0625 0.4375 4 1 C3 4 3 4 1 6 C1 6.99 1 7.98 1 9 C0.01 8.67 -0.98 8.34 -2 8 C-1.125 1.125 -1.125 1.125 0 0 Z " fill="#AEC0D7" transform="translate(89,189)"/>
<path d="M0 0 C0.33 0.99 0.66 1.98 1 3 C-0.40445835 5.2636564 -2.1967913 7.0208685 -4 9 C-5.32 8.67 -6.64 8.34 -8 8 C-7.04578192 6.85073734 -6.08647955 5.70569459 -5.125 4.5625 C-4.59132812 3.92441406 -4.05765625 3.28632813 -3.5078125 2.62890625 C-2 1 -2 1 0 0 Z " fill="#E1E7F0" transform="translate(136,196)"/>
<path d="M0 0 C0.33 0 0.66 0 1 0 C1.33 6.27 1.66 12.54 2 19 C1.01 19.33 0.02 19.66 -1 20 C-0.67 13.4 -0.34 6.8 0 0 Z " fill="#C8D4E3" transform="translate(177,104)"/>
<path d="M0 0 C0.66 0.33 1.32 0.66 2 1 C0.95125002 3.62187494 0.35068687 4.79371361 -2.125 6.25 C-2.74375 6.4975 -3.3625 6.745 -4 7 C-4.99 6.01 -5.98 5.02 -7 4 C-1.7265625 0.77734375 -1.7265625 0.77734375 0 0 Z " fill="#E3E9F1" transform="translate(132,191)"/>
<path d="M0 0 C4.38259368 1.33912585 6.54093925 3.12225036 9 7 C8.67 7.99 8.34 8.98 8 10 C6.79557292 8.50260417 5.59114583 7.00520833 4.38671875 5.5078125 C2.87729455 3.74707893 2.87729455 3.74707893 0 2 C0 1.34 0 0.68 0 0 Z " fill="#D4DCE8" transform="translate(154,59)"/>
<path d="M0 0 C0 3 0 3 -1.96875 5.26171875 C-2.8040625 6.06222656 -3.639375 6.86273438 -4.5 7.6875 C-5.3353125 8.49574219 -6.170625 9.30398437 -7.03125 10.13671875 C-7.6809375 10.75160156 -8.330625 11.36648437 -9 12 C-9.66 11.67 -10.32 11.34 -11 11 C-9.92173635 9.72486237 -8.83714481 8.45507431 -7.75 7.1875 C-7.14671875 6.47980469 -6.5434375 5.77210937 -5.921875 5.04296875 C-4.07629602 3.08110329 -2.20054668 1.54330375 0 0 Z " fill="#104B92" transform="translate(71,59)"/>
<path d="M0 0 C0 0.66 0 1.32 0 2 C-2.1171875 3.5078125 -2.1171875 3.5078125 -4.875 5.125 C-5.77992187 5.66382813 -6.68484375 6.20265625 -7.6171875 6.7578125 C-10 8 -10 8 -12 8 C-10.77974937 4.3392481 -9.873509 4.07660559 -6.5625 2.3125 C-5.75941406 1.87550781 -4.95632812 1.43851563 -4.12890625 0.98828125 C-2 0 -2 0 0 0 Z " fill="#E9EEF4" transform="translate(85,49)"/>
<path d="M0 0 C2.625 0.375 2.625 0.375 5 1 C4.34 1.66 3.68 2.32 3 3 C2.34 3.70125 1.68 4.4025 1 5.125 C-1 7 -1 7 -3 7 C-2.25 2.25 -2.25 2.25 0 0 Z " fill="#215597" transform="translate(34,152)"/>
<path d="M0 0 C0.66 0 1.32 0 2 0 C7 5.35714286 7 5.35714286 7 9 C3.17475764 7.549046 1.80909034 5.61818068 0 2 C0 1.34 0 0.68 0 0 Z " fill="#E4EAF1" transform="translate(174,43)"/>
<path d="M0 0 C0 0.99 0 1.98 0 3 C-2.31 2.67 -4.62 2.34 -7 2 C-7 1.34 -7 0.68 -7 0 C-3.86650268 -1.04449911 -3.01031744 -0.93423645 0 0 Z " fill="#2C5E9D" transform="translate(45,166)"/>
<path d="M0 0 C0.99 0.33 1.98 0.66 3 1 C3.6875 3.0625 3.6875 3.0625 4 5 C2.68 5 1.36 5 0 5 C-0.66 3.68 -1.32 2.36 -2 1 C-1.34 0.67 -0.68 0.34 0 0 Z " fill="#1D5497" transform="translate(183,58)"/>
<path d="M0 0 C0.66 0 1.32 0 2 0 C1.52797514 4.24822374 -0.96655518 6.19989709 -4 9 C-4 4.9666466 -2.39120082 3.16482462 0 0 Z " fill="#CDD8E6" transform="translate(83,194)"/>
<path d="M0 0 C0.99 0 1.98 0 3 0 C2.67 2.64 2.34 5.28 2 8 C1.34 8 0.68 8 0 8 C-1.125 6.25 -1.125 6.25 -2 4 C-1.125 1.75 -1.125 1.75 0 0 Z " fill="#DAE2EC" transform="translate(25,78)"/>
<path d="M0 0 C5.57142857 5.14285714 5.57142857 5.14285714 6 9 C3 8 3 8 1.3125 5.625 C0 3 0 3 0 0 Z " fill="#E5EBF2" transform="translate(48,155)"/>
<path d="M0 0 C0.99 0.33 1.98 0.66 3 1 C-2.75 6 -2.75 6 -5 6 C-3.86525052 2.59575156 -3.03188696 1.78346291 0 0 Z " fill="#EBEFF5" transform="translate(154,160)"/>
<path d="M0 0 C0.99 0 1.98 0 3 0 C2.67 1.98 2.34 3.96 2 6 C1.01 6 0.02 6 -1 6 C-0.67 4.02 -0.34 2.04 0 0 Z " fill="#DBE3ED" transform="translate(160,33)"/>
<path d="M0 0 C1.65 0.33 3.3 0.66 5 1 C3.515 2.485 3.515 2.485 2 4 C1.01 3.67 0.02 3.34 -1 3 C-0.67 2.01 -0.34 1.02 0 0 Z " fill="#245899" transform="translate(35,160)"/>
<path d="M0 0 C3.36720387 1.39332574 4.9859524 2.9789286 7 6 C3.75728494 5.4409112 2.06942576 4.5867822 0 2 C0 1.34 0 0.68 0 0 Z " fill="#DBE3EC" transform="translate(62,154)"/>
</svg>
