<?xml version="1.0" encoding="UTF-8"?>
<svg version="1.1" xmlns="http://www.w3.org/2000/svg" width="225" height="225">
<path d="M0 0 C74.25 0 148.5 0 225 0 C225 74.25 225 148.5 225 225 C150.75 225 76.5 225 0 225 C0 150.75 0 76.5 0 0 Z " fill="#747474" transform="translate(0,0)"/>
<path d="M0 0 C74.25 0 148.5 0 225 0 C225 3.96 225 7.92 225 12 C205.2 12.33 185.4 12.66 165 13 C163.68941719 18.89762264 162.79903436 23.06267254 162.625 28.8125 C161.36297497 50.24553521 155.49035392 72.25392377 145 91 C144.34 91 143.68 91 143 91 C142.34 92.98 141.68 94.96 141 97 C140.34 97 139.68 97 139 97 C139 97.66 139 98.32 139 99 C138.34 99 137.68 99 137 99 C137 99.66 137 100.32 137 101 C136.34 101 135.68 101 135 101 C135 101.66 135 102.32 135 103 C134.34 103 133.68 103 133 103 C133 103.66 133 104.32 133 105 C132.34 105 131.68 105 131 105 C131 105.66 131 106.32 131 107 C125.96469037 107.1238722 120.93027303 107.21446514 115.89379883 107.2746582 C114.18172755 107.29975714 112.46976296 107.33384429 110.75805664 107.37719727 C108.29286355 107.43805739 105.82909015 107.46625432 103.36328125 107.48828125 C102.22080681 107.52699089 102.22080681 107.52699089 101.05525208 107.56648254 C96.97727076 107.56862043 95.25457559 107.21236264 92.07885742 104.56323242 C91.39283447 103.71736572 90.70681152 102.87149902 90 102 C89.46375 101.505 88.9275 101.01 88.375 100.5 C86.56734846 98.5280165 85.37413977 96.29023295 84 94 C83.484375 93.505 82.96875 93.01 82.4375 92.5 C80.57807651 90.55973201 79.9922042 88.48051051 79 86 C78.505 85.54625 78.01 85.0925 77.5 84.625 C75.21108691 82.14534415 74.87395143 79.22269591 74 76 C73.505 75.01 73.01 74.02 72.5 73 C69.83906543 67.67813087 68.74179986 61.96367966 67.50390625 56.18359375 C67.06653461 54.28831664 66.51189683 52.42084269 65.9375 50.5625 C64.95089555 46.81340307 64.54596144 43.26157785 64.21484375 39.41015625 C63.93351408 36.25414884 63.45601206 33.13508292 63 30 C62.82905258 28.45880213 62.6625939 26.91710152 62.5 25.375 C61.92991649 19.50857401 61.92991649 19.50857401 60 14 C72.21 13.67 84.42 13.34 97 13 C64.99 12.67 32.98 12.34 0 12 C0 8.04 0 4.08 0 0 Z " fill="#636363" transform="translate(0,0)"/>
<path d="M0 0 C22.11 0 44.22 0 67 0 C66.34 1.32 65.68 2.64 65 4 C65.99 4.99 65.99 4.99 67 6 C44.89 6 22.78 6 0 6 C0 4.02 0 2.04 0 0 Z " fill="#4F4F4F" transform="translate(0,0)"/>
<path d="M0 0 C19.8 0 39.6 0 60 0 C60 1.98 60 3.96 60 6 C37.89 6 15.78 6 -7 6 C-7 5.67 -7 5.34 -7 5 C-5.824375 4.87625 -5.824375 4.87625 -4.625 4.75 C-3.75875 4.5025 -2.8925 4.255 -2 4 C-1.34 2.68 -0.68 1.36 0 0 Z " fill="#4F4F4F" transform="translate(165,0)"/>
<path d="M0 0 C0.33 1.65 0.66 3.3 1 5 C-5.51244208 5.69508823 -11.5510809 6.31909709 -18 5 C-17.67 4.01 -17.34 3.02 -17 2 C-11.60243576 -0.69878212 -5.87747863 -0.18824665 0 0 Z " fill="#616161" transform="translate(78,0)"/>
</svg>
