<?xml version="1.0" encoding="UTF-8" standalone="no"?>
<!DOCTYPE svg PUBLIC "-//W3C//DTD SVG 1.1//EN" "http://www.w3.org/Graphics/SVG/1.1/DTD/svg11.dtd">
<svg width="100%" height="100%" viewBox="0 0 221 227" version="1.1" xmlns="http://www.w3.org/2000/svg" xmlns:xlink="http://www.w3.org/1999/xlink" xml:space="preserve" xmlns:serif="http://www.serif.com/" style="fill-rule:evenodd;clip-rule:evenodd;stroke-linejoin:round;stroke-miterlimit:2;">
    <g id="アートボード1" transform="matrix(0.875191,0,0,0.842897,-1504,-1452.24)">
        <rect x="1718.48" y="1722.91" width="251.488" height="269.194" style="fill:none;"/>
        <g transform="matrix(1.14261,0,0,1.18638,-280.383,-341.993)">
            <g transform="matrix(4.16667,0,0,4.16667,0,129.751)">
                <path d="M431.516,402.119C431.403,402.76 431.368,403.098 431.368,403.57C431.368,406.59 432.774,409.359 434.838,411.621C437.301,414.32 440.594,416.209 443.881,417.01L457.787,397.144C456.928,396.549 456.032,396.017 455.088,395.57C452.616,394.387 449.868,393.74 446.965,393.74C443.801,393.74 440.821,394.515 438.202,395.896C436.698,396.687 435.321,397.67 434.096,398.816C433.514,399.357 432.973,399.931 432.463,400.547C432.256,400.791 432.11,400.974 431.942,401.199C431.746,401.459 431.582,401.728 431.516,402.119" style="fill:rgb(0,102,179);fill-rule:nonzero;"/>
            </g>
            <g transform="matrix(4.16667,0,0,4.16667,0,240.018)">
                <path d="M464.457,379.301L464.465,379.397C464.465,381.602 464.057,383.76 463.312,385.707C462.439,387.989 461.105,390.045 459.424,391.76C456.23,395.01 451.783,397.03 446.869,397.03C444.475,397.03 442.193,396.551 440.111,395.688L433.18,395.688L435.773,393.09C433.834,391.51 432.234,389.524 431.113,387.258C429.939,384.905 429.281,382.252 429.281,379.442L429.293,379.295C428.471,381.412 428.016,383.721 428.016,386.131C428.016,391.104 429.939,395.623 433.08,398.994C436.525,402.684 441.428,404.99 446.871,404.99C452.795,404.99 458.078,402.262 461.539,397.994C464.162,394.756 465.736,390.627 465.736,386.131C465.736,383.774 465.301,381.52 464.512,379.442L464.457,379.301Z" style="fill:rgb(0,102,179);fill-rule:nonzero;"/>
            </g>
            <g transform="matrix(4.16667,0,0,4.16667,0,320.5)">
                <path d="M428.875,381.91L428.363,384.383L427.869,383.775L428.227,382.027L426.441,382.027L425.945,381.418L428.473,381.416L429.484,380.588L429.885,381.082L428.875,381.91Z" style="fill:rgb(0,102,179);fill-rule:nonzero;"/>
            </g>
            <g transform="matrix(4.16667,0,0,4.16667,0,283.623)">
                <path d="M425.258,385.785C424.569,386.156 424.508,386.826 424.862,387.484C425.215,388.14 425.805,388.459 426.498,388.09C427.311,387.65 427.203,386.918 426.914,386.379C426.623,385.84 426.074,385.349 425.258,385.785M424.377,387.742C423.697,386.478 424.201,385.631 424.987,385.207C425.586,384.885 426.664,384.762 427.397,386.119C428.129,387.482 427.428,388.314 426.83,388.633C426.043,389.058 425.059,389.01 424.377,387.742" style="fill:rgb(0,102,179);fill-rule:nonzero;"/>
            </g>
            <g transform="matrix(4.16667,0,0,4.16667,0,243.733)">
                <path d="M422.859,393.838L422.683,393.225L424.148,392.807L422.181,391.486L421.929,390.613L423.607,391.752L425.027,389.557L425.257,390.361L424.097,392.094L424.847,392.602L425.822,392.32L426,392.936L422.859,393.838Z" style="fill:rgb(0,102,179);fill-rule:nonzero;"/>
            </g>
            <g transform="matrix(4.16667,0,0,4.16667,0,206.804)">
                <path d="M423.025,394.82C422.242,394.884 421.92,395.476 421.984,396.218C422.045,396.961 422.459,397.49 423.242,397.425C424.164,397.349 424.357,396.632 424.306,396.025C424.255,395.416 423.947,394.744 423.025,394.82M421.435,396.263C421.316,394.83 422.117,394.256 423.005,394.181C423.683,394.125 424.722,394.439 424.853,395.98C424.98,397.519 424.007,398.002 423.33,398.058C422.439,398.133 421.556,397.697 421.435,396.263" style="fill:rgb(0,102,179);fill-rule:nonzero;"/>
            </g>
            <g transform="matrix(4.16667,0,0,4.16667,0,162.177)">
                <path d="M421.432,402.975L421.518,402.344L422.801,402.522L423.106,400.352L421.823,400.17L421.911,399.539L425.149,399.991L425.059,400.625L423.666,400.428L423.364,402.6L424.756,402.795L424.666,403.428L421.432,402.975Z" style="fill:rgb(0,102,179);fill-rule:nonzero;"/>
            </g>
            <g transform="matrix(4.16667,0,0,4.16667,0,124.701)">
                <path d="M425.143,404.874L423.541,404.999L424.663,406.151L425.143,404.874ZM422.931,405.157L423.191,404.478L426.806,404.145L426.568,404.776L425.746,404.831L425.08,406.593L425.659,407.181L425.419,407.817L422.931,405.157Z" style="fill:rgb(0,102,179);fill-rule:nonzero;"/>
            </g>
            <g transform="matrix(4.16667,0,0,4.16667,0,79.4475)">
                <path d="M425.664,412.024L425.658,412.032L427.711,413.411L427.396,413.879L424.687,412.061L425.166,411.348L427.742,411.852L426.31,409.643L426.777,408.944L429.49,410.764L429.174,411.235L427.119,409.856L427.113,409.862L428.586,412.11L428.303,412.53L425.664,412.024Z" style="fill:rgb(0,102,179);fill-rule:nonzero;"/>
            </g>
            <g transform="matrix(4.16667,0,0,4.16667,0,49.3383)">
                <path d="M431.361,414.254L429.867,413.656L430.363,415.188L431.361,414.254ZM429.252,413.531L429.781,413.033L433.172,414.34L432.679,414.799L431.918,414.483L430.545,415.77L430.802,416.553L430.304,417.016L429.252,413.531Z" style="fill:rgb(0,102,179);fill-rule:nonzero;"/>
            </g>
            <g transform="matrix(4.16667,0,0,4.16667,0,5.1875)">
                <path d="M435.947,419.438L436.574,419.19L439.467,420.584L438.605,418.391L439.174,418.17L440.369,421.208L439.826,421.42L436.816,419.979L437.711,422.254L437.142,422.475L435.947,419.438Z" style="fill:rgb(0,102,179);fill-rule:nonzero;"/>
            </g>
            <g transform="matrix(4.16667,0,0,4.16667,0,-2.14667)">
                <path d="M443.277,421.116C442.963,421.188 442.693,421.282 442.447,421.391C442.123,421.534 441.984,421.677 442.017,421.886C442.048,422.089 442.207,422.192 442.476,422.143C442.89,422.067 443.189,421.827 443.379,421.661L443.277,421.116ZM443.974,421.831C444.004,421.987 444.043,422.147 444.091,422.206L443.529,422.309L443.455,422.075C443.246,422.249 442.939,422.499 442.474,422.583C442.158,422.641 441.529,422.618 441.422,422.034C441.277,421.235 442.447,420.901 443.207,420.718L443.187,420.612C443.152,420.43 442.966,420.333 442.515,420.415C442.011,420.507 441.939,420.71 441.931,420.845L441.363,420.948C441.377,420.282 441.988,420.055 442.431,419.975C443.576,419.764 443.699,420.319 443.759,420.645L443.974,421.831Z" style="fill:rgb(0,102,179);fill-rule:nonzero;"/>
            </g>
            <g transform="matrix(4.16667,0,0,4.16667,0,-7.45417)">
                <path d="M445.17,421.052L445.602,421.038L445.578,420.251L446.135,420.238L446.158,421.023L446.998,420.997L447.01,421.472L446.172,421.497L446.205,422.603C446.209,422.773 446.283,422.954 446.607,422.947C446.715,422.943 446.938,422.907 447.08,422.863L447.094,423.353C446.822,423.398 446.691,423.421 446.494,423.425C445.965,423.441 445.668,423.279 445.652,422.749L445.615,421.515L445.184,421.529L445.17,421.052Z" style="fill:rgb(0,102,179);fill-rule:nonzero;"/>
            </g>
            <g transform="matrix(4.16667,0,0,4.16667,0,-8.22167)">
                <path d="M448.658,420.242L449.213,420.285L449.174,420.777L448.617,420.732L448.658,420.242ZM448.582,421.172L449.138,421.215L448.945,423.621L448.392,423.574L448.582,421.172Z" style="fill:rgb(0,102,179);fill-rule:nonzero;"/>
            </g>
            <g transform="matrix(4.16667,0,0,4.16667,0,-0.784167)">
                <path d="M452.643,421.227C452.761,420.674 452.455,420.368 452.043,420.278C451.625,420.188 451.224,420.34 451.108,420.893C450.997,421.395 451.21,421.754 451.7,421.862C452.186,421.967 452.533,421.725 452.643,421.227M450.551,420.782C450.69,420.151 451.205,419.61 452.143,419.815C453.083,420.018 453.33,420.723 453.193,421.354C452.988,422.293 452.245,422.469 451.597,422.329C450.953,422.186 450.348,421.719 450.551,420.782" style="fill:rgb(0,102,179);fill-rule:nonzero;"/>
            </g>
            <g transform="matrix(4.16667,0,0,4.16667,0,9.48)">
                <path d="M455.082,418.236L455.588,418.445L455.477,418.722C455.703,418.631 456.002,418.525 456.455,418.711C456.924,418.902 457.25,419.263 456.971,419.947L456.385,421.379L455.869,421.164L456.377,419.927C456.557,419.486 456.5,419.244 456.156,419.101C455.742,418.935 455.508,419.037 455.312,419.142L454.684,420.681L454.168,420.47L455.082,418.236Z" style="fill:rgb(0,102,179);fill-rule:nonzero;"/>
            </g>
            <g transform="matrix(4.16667,0,0,4.16667,0,25.44)">
                <path d="M459.885,418.167C459.604,418.005 459.342,417.894 459.088,417.806C458.752,417.692 458.553,417.704 458.436,417.878C458.323,418.052 458.367,418.235 458.598,418.38C458.955,418.606 459.338,418.63 459.59,418.636L459.885,418.167ZM459.912,419.165C459.826,419.302 459.75,419.442 459.744,419.519L459.26,419.214L459.364,418.993C459.094,418.981 458.703,418.958 458.299,418.702C458.03,418.532 457.58,418.089 457.899,417.587C458.334,416.899 459.42,417.45 460.1,417.827L460.158,417.735C460.256,417.581 460.188,417.382 459.801,417.136C459.365,416.862 459.174,416.966 459.076,417.056L458.588,416.747C459.053,416.265 459.655,416.513 460.035,416.755C461.018,417.374 460.737,417.864 460.557,418.147L459.912,419.165Z" style="fill:rgb(0,102,179);fill-rule:nonzero;"/>
            </g>
            <g transform="matrix(3.19848,2.67036,2.67036,-3.19848,-664.569,1870.59)">
                <rect x="461.871" y="414.794" width="0.556" height="3.268" style="fill:rgb(0,102,179);"/>
            </g>
            <g transform="matrix(4.16667,0,0,4.16667,0,80.9125)">
                <path d="M467.594,412.91C466.711,413.484 465.987,413.156 465.405,412.265C464.823,411.373 464.819,410.578 465.699,410.002L467.264,408.986L467.614,409.521L466.086,410.514C465.633,410.806 465.371,411.209 465.864,411.969C466.358,412.723 466.83,412.646 467.283,412.351L468.809,411.357L469.156,411.892L467.594,412.91Z" style="fill:rgb(0,102,179);fill-rule:nonzero;"/>
            </g>
            <g transform="matrix(4.16667,0,0,4.16667,0,116.314)">
                <path d="M469.203,405.424L469.41,405.932L469.133,406.047C469.355,406.143 469.64,406.283 469.826,406.738C470.015,407.203 469.984,407.69 469.305,407.969L467.875,408.551L467.664,408.037L468.902,407.531C469.344,407.352 469.476,407.141 469.336,406.797C469.168,406.385 468.93,406.287 468.719,406.225L467.18,406.852L466.971,406.334L469.203,405.424Z" style="fill:rgb(0,102,179);fill-rule:nonzero;"/>
            </g>
            <g transform="matrix(4.16667,0,0,4.16667,0,140.102)">
                <path d="M471.527,403.445L471.666,403.984L471.187,404.107L471.048,403.568L471.527,403.445ZM470.621,403.677L470.759,404.216L468.425,404.82L468.285,404.281L470.621,403.677Z" style="fill:rgb(0,102,179);fill-rule:nonzero;"/>
            </g>
            <g transform="matrix(4.16667,0,0,4.16667,0,165.608)">
                <path d="M471.203,400.267L469.523,401.283L471.392,401.876L471.465,402.484L468.933,401.626L468.869,401.074L471.131,399.66L471.203,400.267Z" style="fill:rgb(0,102,179);fill-rule:nonzero;"/>
            </g>
            <g transform="matrix(4.16667,0,0,4.16667,0,197.44)">
                <path d="M470.494,398.012C470.908,397.942 471.07,397.668 471.084,397.27C471.096,396.979 471.012,396.637 470.553,396.51L470.494,398.012ZM469.715,398.532C469.519,398.485 468.926,398.135 468.961,397.242C468.992,396.381 469.551,395.885 470.307,395.912C470.988,395.942 471.568,396.41 471.531,397.301C471.49,398.205 470.912,398.619 470.041,398.59L470.121,396.475C469.967,396.491 469.461,396.557 469.41,397.241C469.394,397.592 469.553,397.832 469.738,397.92L469.715,398.532Z" style="fill:rgb(0,102,179);fill-rule:nonzero;"/>
            </g>
            <g transform="matrix(4.16667,0,0,4.16667,0,227.628)">
                <path d="M471.166,393.056L471.061,393.603L470.707,393.536L470.705,393.548C470.875,393.706 471.068,393.99 470.977,394.462L470.932,394.654L470.34,394.542C470.363,394.492 470.414,394.394 470.449,394.214C470.576,393.519 470.115,393.427 469.947,393.392L468.689,393.15L468.795,392.605L471.166,393.056Z" style="fill:rgb(0,102,179);fill-rule:nonzero;"/>
            </g>
            <g transform="matrix(4.16667,0,0,4.16667,0,253.851)">
                <path d="M469.166,391.356C469.297,391.313 469.613,391.217 469.777,390.737C469.91,390.358 469.809,390.18 469.68,390.133C469.502,390.073 469.395,390.284 469.244,390.581C468.949,391.178 468.656,391.711 468.092,391.518C467.422,391.286 467.613,390.489 467.74,390.12C468.014,389.336 468.412,389.202 468.723,389.088L468.826,389.624C468.465,389.702 468.262,389.985 468.146,390.319C468.051,390.6 468.047,390.883 468.246,390.954C468.42,391.012 468.48,390.889 468.752,390.358C469.162,389.536 469.498,389.454 469.848,389.575C470.084,389.655 470.508,390.012 470.199,390.897C470.109,391.157 469.853,391.7 469.256,391.877L469.166,391.356Z" style="fill:rgb(0,102,179);fill-rule:nonzero;"/>
            </g>
            <g transform="matrix(4.16667,0,0,4.16667,0,278.741)">
                <path d="M469.846,387.996L469.596,388.492L469.155,388.273L469.403,387.775L469.846,387.996ZM469.01,387.58L468.762,388.078L466.602,387L466.852,386.5L469.01,387.58Z" style="fill:rgb(0,102,179);fill-rule:nonzero;"/>
            </g>
            <g transform="matrix(4.16667,0,0,4.16667,0,297.077)">
                <path d="M467.975,384.959L467.741,385.32L468.399,385.746L468.098,386.215L467.438,385.787L466.981,386.492L466.58,386.232L467.039,385.527L466.112,384.924C465.969,384.832 465.776,384.789 465.602,385.061C465.543,385.15 465.442,385.355 465.399,385.496L464.987,385.23C465.108,384.98 465.164,384.863 465.27,384.697C465.559,384.252 465.86,384.1 466.305,384.387L467.342,385.061L467.579,384.699L467.975,384.959Z" style="fill:rgb(0,102,179);fill-rule:nonzero;"/>
            </g>
            <g transform="matrix(4.16667,0,0,4.16667,0,318.09)">
                <path d="M464.082,381.013C464.021,381.056 463.912,381.122 463.814,381.232C463.506,381.574 463.551,381.818 463.686,381.939C463.77,382.015 463.865,382.07 464.033,382.117L466.158,382.726L465.752,383.181L463.896,382.618L464.662,384.398L464.254,384.853L463.15,382.183C462.955,381.718 463.057,381.339 463.352,381.011C463.494,380.847 463.633,380.745 463.725,380.695L464.082,381.013Z" style="fill:rgb(0,102,179);fill-rule:nonzero;"/>
            </g>
            <g transform="matrix(4.16667,0,0,4.16667,0,392.062)">
                <path d="M439.754,376.946L438.67,376.946L438.506,376.88L438.436,376.716L438.436,374.786L435.774,371.229L435.746,370.983L435.955,370.85L437.285,370.85L437.467,370.934L439.213,373.364L440.951,370.938L441.135,370.85L442.473,370.85L442.68,370.983L442.652,371.231L439.99,374.786L439.99,376.716L439.922,376.88L439.754,376.946Z" style="fill:rgb(0,102,179);fill-rule:nonzero;"/>
            </g>
            <g transform="matrix(4.16667,0,0,4.16667,0,392.069)">
                <path d="M450.147,376.946L449.071,376.946L448.935,376.887L445.419,372.969L445.419,376.846L445.318,376.946L444.053,376.946L443.951,376.846L443.951,370.948L444.053,370.848L445.395,370.848L445.53,370.907L448.751,374.466L448.751,370.948L448.852,370.848L450.147,370.848L450.246,370.948L450.246,376.846L450.147,376.946Z" style="fill:rgb(0,102,179);fill-rule:nonzero;"/>
            </g>
            <g transform="matrix(4.16667,0,0,4.16667,0,392.153)">
                <path d="M454.691,376.945C453.865,376.943 453.211,376.781 452.693,376.457C452.003,376.025 451.615,375.232 451.623,374.277L451.623,370.927L451.724,370.828L453.005,370.828L453.107,370.927L453.107,374.277C453.111,374.728 453.226,375.029 453.48,375.244C453.736,375.451 454.152,375.56 454.687,375.56C455.232,375.56 455.65,375.451 455.902,375.244C456.158,375.029 456.277,374.734 456.279,374.277L456.279,370.927L456.378,370.828L457.664,370.828L457.761,370.927L457.761,374.277C457.771,375.232 457.382,376.025 456.691,376.457C456.175,376.781 455.519,376.943 454.691,376.945" style="fill:rgb(0,102,179);fill-rule:nonzero;"/>
            </g>
        </g>
    </g>
</svg>
